<svg width="60" height="58" viewBox="0 0 60 58" fill="none" xmlns="http://www.w3.org/2000/svg">
<path d="M5.53669 56.625L8.38069 47.745H10.4687L13.3127 56.625H11.4527L10.1807 52.005C9.91669 51.081 9.66469 50.049 9.41269 49.101H9.36469C9.12469 50.061 8.87269 51.081 8.60869 52.005L7.33669 56.625H5.53669ZM7.30069 54.345V52.977H11.5247V54.345H7.30069ZM17.3042 56.793C15.4562 56.793 14.0402 55.497 14.0402 53.277C14.0402 51.045 15.6362 49.749 17.4602 49.749C18.3002 49.749 18.9242 50.061 19.4162 50.493L18.5882 51.621C18.2522 51.333 17.9282 51.189 17.5682 51.189C16.5242 51.189 15.8402 52.005 15.8402 53.277C15.8402 54.537 16.5362 55.365 17.4962 55.365C17.9882 55.365 18.4442 55.125 18.8162 54.825L19.5122 55.989C18.8762 56.541 18.0482 56.793 17.3042 56.793ZM23.4504 56.793C21.6024 56.793 20.1864 55.497 20.1864 53.277C20.1864 51.045 21.7824 49.749 23.6064 49.749C24.4464 49.749 25.0704 50.061 25.5624 50.493L24.7344 51.621C24.3984 51.333 24.0744 51.189 23.7144 51.189C22.6704 51.189 21.9864 52.005 21.9864 53.277C21.9864 54.537 22.6824 55.365 23.6424 55.365C24.1344 55.365 24.5904 55.125 24.9624 54.825L25.6584 55.989C25.0224 56.541 24.1944 56.793 23.4504 56.793ZM29.5607 56.793C27.8687 56.793 26.3327 55.497 26.3327 53.277C26.3327 51.045 27.8687 49.749 29.5607 49.749C31.2407 49.749 32.7767 51.045 32.7767 53.277C32.7767 55.497 31.2407 56.793 29.5607 56.793ZM29.5607 55.365C30.4727 55.365 30.9767 54.537 30.9767 53.277C30.9767 52.005 30.4727 51.189 29.5607 51.189C28.6367 51.189 28.1327 52.005 28.1327 53.277C28.1327 54.537 28.6367 55.365 29.5607 55.365ZM36.5084 56.793C35.0564 56.793 34.4204 55.797 34.4204 54.105V49.917H36.1844V53.889C36.1844 54.921 36.4724 55.281 37.1324 55.281C37.6844 55.281 38.0444 55.041 38.5004 54.441V49.917H40.2524V56.625H38.8124L38.6804 55.665H38.6444C38.0564 56.349 37.4204 56.793 36.5084 56.793ZM42.385 56.625V49.917H43.813L43.957 50.805H43.993C44.569 50.229 45.265 49.749 46.177 49.749C47.617 49.749 48.253 50.757 48.253 52.437V56.625H46.489V52.665C46.489 51.609 46.189 51.261 45.541 51.261C44.989 51.261 44.641 51.525 44.149 52.005V56.625H42.385ZM52.7605 56.793C51.1645 56.793 50.5525 55.785 50.5525 54.285V51.297H49.6165V49.989L50.6605 49.917L50.8525 48.093H52.3165V49.917H53.9845V51.297H52.3165V54.285C52.3165 55.053 52.6405 55.413 53.2285 55.413C53.4565 55.413 53.7085 55.329 53.9005 55.257L54.1885 56.541C53.8285 56.661 53.3605 56.793 52.7605 56.793Z" fill="#E9E8E7"/>
<path d="M14 43.625V41.375C14 32.6765 21.1635 25.625 30 25.625C38.8366 25.625 46 32.6765 46 41.375V43.625" stroke="#E9E8E7" stroke-width="3" stroke-linecap="round" stroke-linejoin="round"/>
<path d="M29.5 21.625C34.7466 21.625 39 17.1478 39 11.625C39 6.10215 34.7466 1.625 29.5 1.625C24.2533 1.625 20 6.10215 20 11.625C20 17.1478 24.2533 21.625 29.5 21.625Z" stroke="#E9E8E7" stroke-width="3" stroke-linecap="round" stroke-linejoin="round"/>
</svg>
