<svg width="76" height="63" viewBox="0 0 76 63" fill="none" xmlns="http://www.w3.org/2000/svg">
<path d="M3 53.6667V22C3 18.5022 6.134 15.6667 10 15.6667H11.75C13.9533 15.6667 16.028 14.7281 17.35 13.1333L25.12 3.76C25.5166 3.28158 26.139 3 26.8 3H49.2C49.8611 3 50.4835 3.28158 50.88 3.76L58.65 13.1333C59.9719 14.7281 62.0468 15.6667 64.25 15.6667H66C69.8661 15.6667 73 18.5022 73 22V53.6667C73 57.1646 69.8661 60 66 60H10C6.134 60 3 57.1646 3 53.6667Z" fill="#333130" stroke="#FFB129" stroke-width="6" stroke-linecap="round" stroke-linejoin="round"/>
<path d="M38 47.3333C45.7318 47.3333 52 41.6622 52 34.6667C52 27.6712 45.7318 22 38 22C30.268 22 24 27.6712 24 34.6667C24 41.6622 30.268 47.3333 38 47.3333Z" fill="#333130" stroke="#FFB129" stroke-width="6" stroke-linecap="round" stroke-linejoin="round"/>
</svg>
