<svg width="390" height="844" viewBox="0 0 390 844" fill="none" xmlns="http://www.w3.org/2000/svg">
<rect width="390" height="844" fill="#333130"/>
<path d="M148.195 122.504C148.195 126.045 148.462 128.509 148.995 129.896C149.55 131.283 150.51 131.976 151.875 131.976C152.878 131.976 153.635 131.731 154.147 131.24C154.659 130.728 155.043 129.693 155.299 128.136C155.576 126.557 155.715 124.2 155.715 121.064V113.352C155.715 110.301 155.416 108.029 154.819 106.536C154.222 105.043 153.24 104.296 151.875 104.296C150.51 104.296 149.55 105.032 148.995 106.504C148.462 107.955 148.195 110.611 148.195 114.472V122.504ZM151.203 137.672C149.432 137.672 147.832 137.512 146.403 137.192C144.995 136.872 143.779 136.424 142.755 135.848C141.731 135.272 140.835 134.536 140.067 133.64C139.32 132.744 138.712 131.784 138.243 130.76C137.795 129.736 137.432 128.541 137.155 127.176C136.878 125.789 136.686 124.413 136.579 123.048C136.472 121.661 136.419 120.104 136.419 118.376C136.419 115.816 136.547 113.587 136.803 111.688C137.08 109.789 137.582 108.008 138.307 106.344C139.032 104.659 139.992 103.293 141.187 102.248C142.403 101.203 143.96 100.381 145.859 99.784C147.779 99.1867 150.04 98.888 152.643 98.888C154.435 98.888 156.046 99.0587 157.475 99.4C158.904 99.72 160.131 100.168 161.155 100.744C162.179 101.32 163.064 102.067 163.811 102.984C164.579 103.901 165.187 104.883 165.635 105.928C166.104 106.952 166.478 108.157 166.755 109.544C167.032 110.931 167.224 112.307 167.331 113.672C167.438 115.037 167.491 116.584 167.491 118.312C167.491 120.872 167.352 123.101 167.075 125C166.798 126.899 166.296 128.68 165.571 130.344C164.846 131.987 163.875 133.331 162.659 134.376C161.443 135.4 159.875 136.211 157.955 136.808C156.056 137.384 153.806 137.672 151.203 137.672ZM184.032 133.832C184.971 133.832 185.685 133.448 186.176 132.68C186.688 131.891 186.944 130.813 186.944 129.448V119.336C186.944 115.176 185.963 113.096 184 113.096C183.083 113.096 182.368 113.469 181.856 114.216C181.344 114.963 181.088 116.019 181.088 117.384V127.784C181.088 131.816 182.069 133.832 184.032 133.832ZM183.776 137.672C178.891 137.672 175.317 136.563 173.056 134.344C170.795 132.125 169.664 128.584 169.664 123.72C169.664 118.899 170.805 115.272 173.088 112.84C175.371 110.387 179.083 109.16 184.224 109.16C189.237 109.16 192.853 110.333 195.072 112.68C197.312 115.005 198.432 118.536 198.432 123.272C198.432 128.179 197.248 131.805 194.88 134.152C192.533 136.499 188.832 137.672 183.776 137.672ZM218.302 137C217.065 137 215.934 136.872 214.91 136.616C213.886 136.36 212.99 136.04 212.222 135.656V146.664H201.918V116.296L199.998 115.112V111.688L206.878 109.8H212.222V111.944C212.99 111.155 213.918 110.493 215.006 109.96C216.094 109.427 217.363 109.16 218.814 109.16C222.334 109.16 224.915 110.365 226.558 112.776C228.222 115.187 229.054 118.525 229.054 122.792C229.054 124.797 228.83 126.653 228.382 128.36C227.934 130.045 227.273 131.539 226.398 132.84C225.523 134.141 224.393 135.165 223.006 135.912C221.641 136.637 220.073 137 218.302 137ZM213.598 132.552C216.457 132.552 217.886 130.365 217.886 125.992V120.552C217.886 118.632 217.555 117.203 216.894 116.264C216.254 115.325 215.422 114.856 214.398 114.856C213.694 114.856 212.969 115.069 212.222 115.496V132.392C212.478 132.456 212.713 132.499 212.926 132.52C213.161 132.541 213.385 132.552 213.598 132.552ZM241.178 137.672C239.172 137.672 237.146 137.341 235.098 136.68C233.05 135.997 231.738 135.336 231.162 134.696L231.994 129.544C232.719 130.248 233.924 130.856 235.61 131.368C237.316 131.88 239.055 132.136 240.826 132.136C242.106 132.136 242.98 131.976 243.45 131.656C243.94 131.336 244.186 130.888 244.186 130.312C244.186 129.757 243.759 129.267 242.906 128.84C242.052 128.392 240.666 127.88 238.746 127.304C233.775 125.811 231.29 122.717 231.29 118.024C231.29 116.104 231.844 114.461 232.954 113.096C234.063 111.709 235.482 110.707 237.21 110.088C238.938 109.469 240.868 109.16 243.002 109.16C246.65 109.16 249.338 109.832 251.066 111.176C251.45 111.539 251.642 111.72 251.642 111.72L250.234 116.296C248.826 114.909 246.884 114.216 244.41 114.216C242.383 114.216 241.37 114.813 241.37 116.008C241.37 116.349 241.444 116.637 241.594 116.872C241.743 117.085 241.988 117.277 242.33 117.448C242.692 117.597 243.044 117.725 243.386 117.832C243.727 117.917 244.207 118.045 244.826 118.216C245.444 118.365 245.978 118.504 246.426 118.632C248.922 119.464 250.735 120.637 251.866 122.152C252.996 123.667 253.562 125.555 253.562 127.816C253.562 134.387 249.434 137.672 241.178 137.672Z" fill="#FFB129"/>
<path d="M114.091 274L107.03 248.997H114.901L116.757 257.616L118.677 266.661L120.491 257.616L122.411 248.997H128.021L121.835 274H114.091ZM137.868 262.971C137.868 261.164 137.775 259.884 137.59 259.131C137.405 258.377 137.064 258 136.566 258C136.14 258 135.791 258.078 135.521 258.235C135.251 258.377 135.052 258.612 134.924 258.939C134.796 259.252 134.71 259.579 134.668 259.92C134.639 260.247 134.625 260.667 134.625 261.179V262.971H137.868ZM136.161 274.448C134.568 274.448 133.181 274.206 132.001 273.723C130.835 273.239 129.91 272.564 129.228 271.696C128.559 270.828 128.069 269.854 127.756 268.773C127.443 267.678 127.286 266.462 127.286 265.125C127.286 261.94 128.097 259.529 129.718 257.893C131.34 256.258 133.608 255.44 136.524 255.44C139.325 255.44 141.331 256.101 142.54 257.424C143.749 258.732 144.353 260.844 144.353 263.76V266.128H134.604V266.533C134.604 267.372 134.689 268.062 134.86 268.603C135.045 269.143 135.308 269.541 135.649 269.797C135.99 270.053 136.339 270.224 136.694 270.309C137.05 270.395 137.484 270.437 137.996 270.437C138.493 270.437 139.027 270.373 139.596 270.245C140.179 270.117 140.762 269.918 141.345 269.648C141.942 269.378 142.44 269.058 142.838 268.688L144.097 270.843C143.571 271.696 142.796 272.414 141.772 272.997C140.762 273.566 139.788 273.95 138.849 274.149C137.91 274.348 137.014 274.448 136.161 274.448ZM153.555 274H146.664V260.197L145.384 259.408V256.997L149.971 255.867H151.699L152.317 260.944C152.9 257.46 154.771 255.717 157.928 255.717C158.284 255.717 158.653 255.781 159.037 255.909L158.312 263.504C158.013 263.234 157.359 263.099 156.349 263.099C154.899 263.099 153.967 263.483 153.555 264.251V274ZM160.727 274V260.197L159.447 259.408V257.125L164.033 255.867H167.596V274H160.727ZM163.82 253.904L160.321 250.384V249.637L163.82 246.139H164.63L168.278 249.637V250.384L164.63 253.904H163.82ZM182.23 274V260.197L180.95 259.408V257.125L185.536 255.867H189.099V274H182.23ZM185.323 253.904L181.824 250.384V249.637L185.323 246.139H186.134L189.782 249.637V250.384L186.134 253.904H185.323ZM177.963 274H171.03V259.621H168.96V256.784L171.115 255.867V254.011C171.115 252.574 171.314 251.33 171.712 250.277C172.111 249.225 172.665 248.407 173.376 247.824C174.102 247.241 174.898 246.821 175.766 246.565C176.647 246.295 177.629 246.16 178.71 246.16C179.677 246.16 180.587 246.288 181.44 246.544C182.294 246.8 182.827 247.035 183.04 247.248L182.23 250.491C181.547 250.149 180.843 249.979 180.118 249.979C179.933 249.979 179.762 249.993 179.606 250.021C178.511 250.192 177.963 251.124 177.963 252.816V255.867H180.715V259.621H177.963V274ZM206.311 272.229L206.119 272.464C205.991 272.606 205.763 272.791 205.436 273.019C205.123 273.232 204.739 273.452 204.284 273.68C203.843 273.893 203.246 274.071 202.492 274.213C201.753 274.37 200.956 274.448 200.103 274.448C197.216 274.448 195.004 273.602 193.468 271.909C191.947 270.217 191.186 267.977 191.186 265.189C191.186 263.682 191.42 262.309 191.89 261.072C192.359 259.835 192.999 258.811 193.81 258C194.635 257.175 195.595 256.542 196.69 256.101C197.799 255.646 198.994 255.419 200.274 255.419C202.748 255.419 204.668 256.009 206.034 257.189C206.332 257.488 206.482 257.637 206.482 257.637L206.162 262.651L203.132 262.672L201.916 259.408C201.803 259.38 201.646 259.365 201.447 259.365C200.153 259.365 199.257 259.813 198.759 260.709C198.275 261.591 198.034 263.127 198.034 265.317C198.034 266.27 198.112 267.088 198.268 267.771C198.425 268.439 198.603 268.944 198.802 269.285C199.001 269.612 199.264 269.868 199.591 270.053C199.932 270.238 200.21 270.345 200.423 270.373C200.636 270.402 200.899 270.416 201.212 270.416C201.923 270.416 202.649 270.331 203.388 270.16C204.142 269.989 204.761 269.712 205.244 269.328L206.311 272.229ZM217.818 272.101L217.604 272.336C217.462 272.507 217.241 272.706 216.943 272.933C216.658 273.161 216.324 273.388 215.94 273.616C215.57 273.844 215.115 274.036 214.575 274.192C214.034 274.363 213.48 274.448 212.911 274.448C209.071 274.448 207.151 272.549 207.151 268.752C207.151 268.012 207.286 267.337 207.556 266.725C207.826 266.1 208.175 265.573 208.602 265.147C209.028 264.72 209.54 264.343 210.138 264.016C210.735 263.675 211.332 263.412 211.93 263.227C212.541 263.028 213.181 262.864 213.849 262.736C214.518 262.608 215.115 262.523 215.641 262.48C216.168 262.437 216.673 262.416 217.156 262.416V262.032C217.156 261.164 216.922 260.553 216.452 260.197C215.997 259.842 215.257 259.664 214.234 259.664C213.352 259.664 212.434 259.771 211.482 259.984C210.529 260.183 209.782 260.425 209.241 260.709L207.876 257.808C208.843 257.182 210.102 256.635 211.652 256.165C213.202 255.682 214.781 255.44 216.388 255.44C217.81 255.44 218.984 255.582 219.908 255.867C220.833 256.137 221.579 256.606 222.148 257.275C222.731 257.929 223.144 258.768 223.385 259.792C223.627 260.802 223.748 262.089 223.748 263.653V272.336L224.345 274H218.5L217.818 272.101ZM216.132 270.693C216.317 270.693 216.488 270.658 216.644 270.587C216.815 270.501 216.943 270.423 217.028 270.352C217.114 270.267 217.156 270.224 217.156 270.224V265.104C216.289 265.104 215.599 265.346 215.087 265.829C214.575 266.299 214.319 267.031 214.319 268.027C214.319 269.804 214.923 270.693 216.132 270.693ZM231.469 274.448C229.549 274.448 228.205 273.872 227.437 272.72C226.683 271.568 226.306 269.62 226.306 266.875V259.621H224.834V256.656L227.351 255.867L229.527 250.896H233.282V255.867H236.78V259.621H233.218V267.557C233.218 268.695 233.381 269.449 233.708 269.819C234.036 270.188 234.54 270.373 235.223 270.373C235.522 270.373 235.792 270.338 236.034 270.267C236.276 270.196 236.475 270.096 236.631 269.968V272.869C236.418 273.083 236.141 273.296 235.799 273.509C235.458 273.708 234.889 273.915 234.092 274.128C233.31 274.341 232.436 274.448 231.469 274.448ZM238.664 274V260.197L237.384 259.408V257.125L241.971 255.867H245.533V274H238.664ZM241.757 253.904L238.259 250.384V249.637L241.757 246.139H242.568L246.216 249.637V250.384L242.568 253.904H241.757ZM257.052 271.888C257.678 271.888 258.155 271.632 258.482 271.12C258.823 270.594 258.994 269.876 258.994 268.965V262.224C258.994 259.451 258.34 258.064 257.031 258.064C256.42 258.064 255.943 258.313 255.602 258.811C255.26 259.308 255.09 260.012 255.09 260.923V267.856C255.09 270.544 255.744 271.888 257.052 271.888ZM256.882 274.448C253.625 274.448 251.243 273.708 249.735 272.229C248.228 270.75 247.474 268.389 247.474 265.147C247.474 261.932 248.235 259.515 249.757 257.893C251.278 256.258 253.753 255.44 257.181 255.44C260.523 255.44 262.933 256.222 264.413 257.787C265.906 259.337 266.653 261.691 266.653 264.848C266.653 268.119 265.863 270.537 264.285 272.101C262.72 273.666 260.252 274.448 256.882 274.448ZM275.867 274H268.977V260.197L267.697 259.408V257.125L272.283 255.867H275.91V258.619L276.166 258.299C276.336 258.071 276.585 257.801 276.912 257.488C277.254 257.175 277.631 256.869 278.043 256.571C278.456 256.258 278.946 255.995 279.515 255.781C280.098 255.554 280.667 255.44 281.222 255.44C283.17 255.44 284.543 255.973 285.339 257.04C286.15 258.107 286.555 259.892 286.555 262.395C286.555 262.48 286.555 262.608 286.555 262.779C286.541 262.949 286.534 263.084 286.534 263.184V274H279.494V262.565C279.537 261.228 278.968 260.56 277.787 260.56C277.702 260.56 277.616 260.567 277.531 260.581C277.46 260.596 277.389 260.61 277.318 260.624C277.261 260.638 277.19 260.667 277.104 260.709C277.033 260.738 276.969 260.766 276.912 260.795C276.856 260.809 276.792 260.844 276.72 260.901C276.649 260.944 276.593 260.98 276.55 261.008C276.507 261.036 276.443 261.086 276.358 261.157C276.287 261.214 276.23 261.257 276.187 261.285C276.159 261.314 276.102 261.364 276.016 261.435C275.945 261.492 275.896 261.534 275.867 261.563V274ZM75.4907 307H68.4293V281.997H82.5093V287.437L75.4907 287.011V292.813H81.2507V298.104L75.4907 297.677V307ZM93.6925 305.101L93.4792 305.336C93.3369 305.507 93.1165 305.706 92.8178 305.933C92.5334 306.161 92.1992 306.388 91.8152 306.616C91.4454 306.844 90.9903 307.036 90.4498 307.192C89.9094 307.363 89.3547 307.448 88.7858 307.448C84.9458 307.448 83.0258 305.549 83.0258 301.752C83.0258 301.012 83.1609 300.337 83.4312 299.725C83.7014 299.1 84.0498 298.573 84.4765 298.147C84.9032 297.72 85.4152 297.343 86.0125 297.016C86.6098 296.675 87.2072 296.412 87.8045 296.227C88.4161 296.028 89.0561 295.864 89.7245 295.736C90.3929 295.608 90.9903 295.523 91.5165 295.48C92.0427 295.437 92.5476 295.416 93.0312 295.416V295.032C93.0312 294.164 92.7965 293.553 92.3272 293.197C91.8721 292.842 91.1325 292.664 90.1085 292.664C89.2267 292.664 88.3094 292.771 87.3565 292.984C86.4036 293.183 85.6569 293.425 85.1165 293.709L83.7512 290.808C84.7183 290.182 85.9769 289.635 87.5272 289.165C89.0774 288.682 90.6561 288.44 92.2632 288.44C93.6854 288.44 94.8587 288.582 95.7832 288.867C96.7076 289.137 97.4543 289.606 98.0232 290.275C98.6063 290.929 99.0187 291.768 99.2605 292.792C99.5023 293.802 99.6232 295.089 99.6232 296.653V305.336L100.22 307H94.3752L93.6925 305.101ZM92.0072 303.693C92.1921 303.693 92.3627 303.658 92.5192 303.587C92.6898 303.501 92.8178 303.423 92.9032 303.352C92.9885 303.267 93.0312 303.224 93.0312 303.224V298.104C92.1636 298.104 91.4738 298.346 90.9618 298.829C90.4498 299.299 90.1938 300.031 90.1938 301.027C90.1938 302.804 90.7983 303.693 92.0072 303.693ZM102.352 307V293.197L101.072 292.408V290.125L105.658 288.867H109.221V307H102.352ZM105.445 286.904L101.946 283.384V282.637L105.445 279.139H106.255L109.903 282.637V283.384L106.255 286.904H105.445ZM111.929 307V282.872L110.649 282.104V280.12L117.497 279.053H118.884V307H111.929ZM131.305 295.971C131.305 294.164 131.213 292.884 131.028 292.131C130.843 291.377 130.502 291 130.004 291C129.577 291 129.229 291.078 128.958 291.235C128.688 291.377 128.489 291.612 128.361 291.939C128.233 292.252 128.148 292.579 128.105 292.92C128.077 293.247 128.062 293.667 128.062 294.179V295.971H131.305ZM129.599 307.448C128.006 307.448 126.619 307.206 125.438 306.723C124.272 306.239 123.348 305.564 122.665 304.696C121.997 303.828 121.506 302.854 121.193 301.773C120.88 300.678 120.724 299.462 120.724 298.125C120.724 294.94 121.534 292.529 123.156 290.893C124.777 289.258 127.046 288.44 129.961 288.44C132.763 288.44 134.768 289.101 135.977 290.424C137.186 291.732 137.791 293.844 137.791 296.76V299.128H128.041V299.533C128.041 300.372 128.127 301.062 128.297 301.603C128.482 302.143 128.745 302.541 129.087 302.797C129.428 303.053 129.776 303.224 130.132 303.309C130.487 303.395 130.921 303.437 131.433 303.437C131.931 303.437 132.464 303.373 133.033 303.245C133.616 303.117 134.199 302.918 134.783 302.648C135.38 302.378 135.878 302.058 136.276 301.688L137.535 303.843C137.008 304.696 136.233 305.414 135.209 305.997C134.199 306.566 133.225 306.95 132.286 307.149C131.348 307.348 130.452 307.448 129.599 307.448ZM152.027 307L151.195 304.248C151.081 304.447 150.946 304.646 150.79 304.845C150.647 305.044 150.413 305.3 150.085 305.613C149.758 305.912 149.41 306.175 149.04 306.403C148.67 306.63 148.208 306.829 147.653 307C147.099 307.171 146.516 307.256 145.904 307.256C143.558 307.256 141.837 306.452 140.741 304.845C139.646 303.238 139.099 301.005 139.099 298.147C139.099 296.355 139.355 294.762 139.867 293.368C140.379 291.96 141.182 290.829 142.277 289.976C143.373 289.123 144.695 288.696 146.246 288.696C147.17 288.696 147.995 288.796 148.72 288.995C149.445 289.194 150.071 289.436 150.597 289.72V283.256L148.251 282.467V280.12L155.803 279.053H157.467V307H152.027ZM149.019 303.075C149.275 303.075 149.538 303.032 149.808 302.947C150.078 302.847 150.341 302.712 150.597 302.541V291.811C150.157 291.711 149.751 291.661 149.382 291.661C147.49 291.676 146.537 293.133 146.523 296.035V299.021C146.523 300.358 146.757 301.368 147.227 302.051C147.696 302.733 148.293 303.075 149.019 303.075ZM162.527 312.291L159.583 311.203C160.053 310.804 160.529 310.221 161.013 309.453C161.511 308.7 161.852 307.853 162.037 306.915L159.029 303.885V303.139L162.527 299.64H163.338L166.986 303.139V303.885C166.986 305.08 166.602 306.467 165.834 308.045C165.08 309.624 163.978 311.039 162.527 312.291ZM182.781 307.448C180.861 307.448 179.517 306.872 178.749 305.72C177.995 304.568 177.618 302.62 177.618 299.875V292.621H176.146V289.656L178.664 288.867L180.84 283.896H184.594V288.867H188.093V292.621H184.53V300.557C184.53 301.695 184.694 302.449 185.021 302.819C185.348 303.188 185.853 303.373 186.536 303.373C186.834 303.373 187.105 303.338 187.346 303.267C187.588 303.196 187.787 303.096 187.944 302.968V305.869C187.73 306.083 187.453 306.296 187.112 306.509C186.77 306.708 186.201 306.915 185.405 307.128C184.623 307.341 183.748 307.448 182.781 307.448ZM196.867 307H189.977V293.197L188.697 292.408V289.997L193.283 288.867H195.011L195.63 293.944C196.213 290.46 198.083 288.717 201.24 288.717C201.596 288.717 201.966 288.781 202.35 288.909L201.625 296.504C201.326 296.234 200.672 296.099 199.662 296.099C198.211 296.099 197.28 296.483 196.867 297.251V307ZM212.786 314.339C211.321 314.339 209.941 314.125 208.647 313.699C207.353 313.272 206.407 312.696 205.81 311.971L206.919 309.667C207.744 310.136 209.052 310.371 210.844 310.371C211.413 310.371 211.904 310.307 212.316 310.179C212.729 310.051 213.099 309.823 213.426 309.496C213.753 309.183 214.002 308.735 214.172 308.152C214.343 307.569 214.435 306.851 214.45 305.997V304.163L214.236 304.504C214.094 304.732 213.874 305.009 213.575 305.336C213.291 305.649 212.963 305.969 212.594 306.296C212.224 306.609 211.769 306.879 211.228 307.107C210.702 307.334 210.162 307.448 209.607 307.448C207.488 307.448 205.995 306.858 205.127 305.677C204.259 304.483 203.826 302.477 203.826 299.661V292.088L203.058 291.32V288.867H210.823V301.005C210.823 301.66 210.923 302.143 211.122 302.456C211.335 302.755 211.755 302.904 212.38 302.904C212.565 302.904 212.75 302.876 212.935 302.819C213.12 302.748 213.298 302.655 213.468 302.541C213.653 302.428 213.845 302.285 214.044 302.115V292.088L212.871 291.32V288.867H220.999V304.504C220.999 307.647 220.331 310.072 218.994 311.779C217.657 313.485 215.587 314.339 212.786 314.339ZM241.63 305.101L241.417 305.336C241.274 305.507 241.054 305.706 240.755 305.933C240.471 306.161 240.137 306.388 239.753 306.616C239.383 306.844 238.928 307.036 238.387 307.192C237.847 307.363 237.292 307.448 236.723 307.448C232.883 307.448 230.963 305.549 230.963 301.752C230.963 301.012 231.098 300.337 231.369 299.725C231.639 299.1 231.987 298.573 232.414 298.147C232.841 297.72 233.353 297.343 233.95 297.016C234.547 296.675 235.145 296.412 235.742 296.227C236.354 296.028 236.994 295.864 237.662 295.736C238.33 295.608 238.928 295.523 239.454 295.48C239.98 295.437 240.485 295.416 240.969 295.416V295.032C240.969 294.164 240.734 293.553 240.265 293.197C239.81 292.842 239.07 292.664 238.046 292.664C237.164 292.664 236.247 292.771 235.294 292.984C234.341 293.183 233.594 293.425 233.054 293.709L231.689 290.808C232.656 290.182 233.914 289.635 235.465 289.165C237.015 288.682 238.594 288.44 240.201 288.44C241.623 288.44 242.796 288.582 243.721 288.867C244.645 289.137 245.392 289.606 245.961 290.275C246.544 290.929 246.956 291.768 247.198 292.792C247.44 293.802 247.561 295.089 247.561 296.653V305.336L248.158 307H242.313L241.63 305.101ZM239.945 303.693C240.13 303.693 240.3 303.658 240.457 303.587C240.627 303.501 240.755 303.423 240.841 303.352C240.926 303.267 240.969 303.224 240.969 303.224V298.104C240.101 298.104 239.411 298.346 238.899 298.829C238.387 299.299 238.131 300.031 238.131 301.027C238.131 302.804 238.736 303.693 239.945 303.693ZM258.502 314.531C257.393 314.531 256.141 314.275 254.748 313.763C253.354 313.265 252.451 312.788 252.038 312.333L253.382 309.411C253.738 309.681 254.314 309.93 255.11 310.157C255.907 310.385 256.589 310.499 257.158 310.499C257.727 310.499 258.218 310.42 258.63 310.264C259.057 310.122 259.384 309.937 259.612 309.709C259.839 309.496 260.024 309.226 260.166 308.899C260.309 308.586 260.394 308.301 260.422 308.045C260.465 307.789 260.493 307.505 260.508 307.192V305.379C259.299 306.63 257.827 307.256 256.092 307.256C253.745 307.256 252.024 306.452 250.929 304.845C249.834 303.238 249.286 301.005 249.286 298.147C249.286 296.81 249.436 295.58 249.734 294.456C250.033 293.318 250.467 292.323 251.036 291.469C251.619 290.602 252.373 289.926 253.297 289.443C254.221 288.945 255.267 288.696 256.433 288.696C258.197 288.696 259.725 289.087 261.02 289.869L261.382 288.867H264.646L268.657 289.059V291.064L267.377 291.96V306.211C267.377 311.757 264.419 314.531 258.502 314.531ZM259.185 303.373C259.612 303.373 260.053 303.252 260.508 303.011V291.768C260.166 291.697 259.853 291.661 259.569 291.661C257.677 291.676 256.725 293.133 256.71 296.035V299.341C256.71 300.252 256.831 301.034 257.073 301.688C257.5 302.812 258.204 303.373 259.185 303.373ZM279.568 305.101L279.354 305.336C279.212 305.507 278.991 305.706 278.693 305.933C278.408 306.161 278.074 306.388 277.69 306.616C277.32 306.844 276.865 307.036 276.325 307.192C275.784 307.363 275.23 307.448 274.661 307.448C270.821 307.448 268.901 305.549 268.901 301.752C268.901 301.012 269.036 300.337 269.306 299.725C269.576 299.1 269.925 298.573 270.352 298.147C270.778 297.72 271.29 297.343 271.888 297.016C272.485 296.675 273.082 296.412 273.68 296.227C274.291 296.028 274.931 295.864 275.599 295.736C276.268 295.608 276.865 295.523 277.391 295.48C277.918 295.437 278.423 295.416 278.906 295.416V295.032C278.906 294.164 278.672 293.553 278.202 293.197C277.747 292.842 277.007 292.664 275.984 292.664C275.102 292.664 274.184 292.771 273.232 292.984C272.279 293.183 271.532 293.425 270.991 293.709L269.626 290.808C270.593 290.182 271.852 289.635 273.402 289.165C274.952 288.682 276.531 288.44 278.138 288.44C279.56 288.44 280.734 288.582 281.658 288.867C282.583 289.137 283.329 289.606 283.898 290.275C284.481 290.929 284.894 291.768 285.135 292.792C285.377 293.802 285.498 295.089 285.498 296.653V305.336L286.095 307H280.25L279.568 305.101ZM277.882 303.693C278.067 303.693 278.238 303.658 278.394 303.587C278.565 303.501 278.693 303.423 278.778 303.352C278.864 303.267 278.906 303.224 278.906 303.224V298.104C278.039 298.104 277.349 298.346 276.837 298.829C276.325 299.299 276.069 300.031 276.069 301.027C276.069 302.804 276.673 303.693 277.882 303.693ZM288.227 307V293.197L286.947 292.408V290.125L291.533 288.867H295.096V307H288.227ZM291.32 286.904L287.821 283.384V282.637L291.32 279.139H292.13L295.778 282.637V283.384L292.13 286.904H291.32ZM304.93 307H298.039V293.197L296.759 292.408V290.125L301.346 288.867H304.972V291.619L305.228 291.299C305.399 291.071 305.648 290.801 305.975 290.488C306.316 290.175 306.693 289.869 307.106 289.571C307.518 289.258 308.009 288.995 308.578 288.781C309.161 288.554 309.73 288.44 310.284 288.44C312.233 288.44 313.605 288.973 314.402 290.04C315.212 291.107 315.618 292.892 315.618 295.395C315.618 295.48 315.618 295.608 315.618 295.779C315.603 295.949 315.596 296.084 315.596 296.184V307H308.556V295.565C308.599 294.228 308.03 293.56 306.85 293.56C306.764 293.56 306.679 293.567 306.594 293.581C306.523 293.596 306.451 293.61 306.38 293.624C306.323 293.638 306.252 293.667 306.167 293.709C306.096 293.738 306.032 293.766 305.975 293.795C305.918 293.809 305.854 293.844 305.783 293.901C305.712 293.944 305.655 293.98 305.612 294.008C305.57 294.036 305.506 294.086 305.42 294.157C305.349 294.214 305.292 294.257 305.25 294.285C305.221 294.314 305.164 294.364 305.079 294.435C305.008 294.492 304.958 294.534 304.93 294.563V307ZM322.385 307.405L318.886 303.885V303.139L322.385 299.64H323.196L326.844 303.139V303.885L323.196 307.405H322.385ZM321.19 297.699C321.162 295.836 320.97 294.136 320.614 292.6C320.273 291.064 319.683 289.158 318.844 286.883C318.645 286.257 318.545 285.588 318.545 284.877C318.545 283.512 318.908 282.488 319.633 281.805C320.373 281.108 321.439 280.76 322.833 280.76C324.298 280.76 325.372 281.137 326.054 281.891C326.737 282.63 327.078 283.654 327.078 284.963C327.078 285.66 326.986 286.3 326.801 286.883C325.962 289.158 325.365 291.064 325.009 292.6C324.668 294.136 324.483 295.836 324.454 297.699H321.19Z" fill="#FFB129"/>
</svg>
