<svg width="45" height="57" viewBox="0 0 45 57" fill="none" xmlns="http://www.w3.org/2000/svg">
<path d="M6.25133 56V47.12H8.02733V50.624H11.3873V47.12H13.1513V56H11.3873V52.16H8.02733V56H6.25133ZM18.2374 56.168C16.5454 56.168 15.0094 54.872 15.0094 52.652C15.0094 50.42 16.5454 49.124 18.2374 49.124C19.9174 49.124 21.4534 50.42 21.4534 52.652C21.4534 54.872 19.9174 56.168 18.2374 56.168ZM18.2374 54.74C19.1494 54.74 19.6534 53.912 19.6534 52.652C19.6534 51.38 19.1494 50.564 18.2374 50.564C17.3134 50.564 16.8094 51.38 16.8094 52.652C16.8094 53.912 17.3134 54.74 18.2374 54.74ZM23.1811 56V49.292H24.6091L24.7531 50.18H24.7891C25.3531 49.604 25.9771 49.124 26.8411 49.124C27.8131 49.124 28.3771 49.544 28.6891 50.288C29.3131 49.652 29.9611 49.124 30.8371 49.124C32.2651 49.124 32.9131 50.132 32.9131 51.812V56H31.1491V52.04C31.1491 50.984 30.8611 50.636 30.2131 50.636C29.8291 50.636 29.4091 50.876 28.9291 51.38V56H27.1651V52.04C27.1651 50.984 26.8651 50.636 26.2171 50.636C25.8451 50.636 25.4011 50.876 24.9451 51.38V56H23.1811ZM37.9155 56.168C36.0315 56.168 34.5675 54.872 34.5675 52.652C34.5675 50.468 36.1035 49.124 37.6875 49.124C39.5475 49.124 40.4955 50.468 40.4955 52.328C40.4955 52.664 40.4595 52.976 40.4235 53.144H36.2715C36.4275 54.248 37.1475 54.812 38.1435 54.812C38.6835 54.812 39.1635 54.644 39.6555 54.344L40.2435 55.436C39.5835 55.892 38.7435 56.168 37.9155 56.168ZM36.2475 51.968H38.9955C38.9955 51.056 38.5875 50.48 37.7235 50.48C37.0155 50.48 36.3915 50.984 36.2475 51.968Z" fill="#FFB129"/>
<path d="M2 14.8672L22.5 2L43 14.8672" stroke="#FFB129" stroke-width="3.22798" stroke-linecap="round" stroke-linejoin="round"/>
<path d="M38.4445 23.0554V38.0281C38.4445 38.8035 37.8327 39.4318 37.0778 39.4318H7.92227C7.16748 39.4318 6.5556 38.8035 6.5556 38.0281V23.0554" stroke="#FFB129" stroke-width="3.22798" stroke-linecap="round" stroke-linejoin="round"/>
</svg>
