<svg width="77" height="63" viewBox="0 0 77 63" fill="none" xmlns="http://www.w3.org/2000/svg">
<path d="M37.5489 2.92705C37.8483 2.00574 39.1517 2.00574 39.4511 2.92705L43.8883 16.5836C44.0222 16.9956 44.4062 17.2746 44.8394 17.2746H59.1987C60.1675 17.2746 60.5702 18.5142 59.7865 19.0836L48.1696 27.5238C47.8191 27.7784 47.6724 28.2298 47.8063 28.6418L52.2436 42.2984C52.5429 43.2197 51.4884 43.9858 50.7047 43.4164L39.0878 34.9762C38.7373 34.7216 38.2627 34.7216 37.9122 34.9762L26.2953 43.4164C25.5116 43.9858 24.4571 43.2197 24.7564 42.2984L29.1937 28.6418C29.3276 28.2298 29.1809 27.7784 28.8304 27.5238L17.2135 19.0836C16.4298 18.5142 16.8325 17.2746 17.8013 17.2746H32.1606C32.5938 17.2746 32.9778 16.9956 33.1117 16.5836L37.5489 2.92705Z" stroke="#FFB129" stroke-width="3"/>
<path d="M14.8982 62V53.12H17.9822C19.8422 53.12 21.3183 53.768 21.3183 55.808C21.3183 57.788 19.8422 58.652 17.9822 58.652H16.6742V62H14.8982ZM16.6742 57.248H17.8142C18.9662 57.248 19.5902 56.756 19.5902 55.808C19.5902 54.86 18.9662 54.536 17.8142 54.536H16.6742V57.248ZM19.7222 62L17.6582 58.196L18.8942 57.08L21.7023 62H19.7222ZM25.9027 62.168C24.0187 62.168 22.5547 60.872 22.5547 58.652C22.5547 56.468 24.0907 55.124 25.6747 55.124C27.5347 55.124 28.4827 56.468 28.4827 58.328C28.4827 58.664 28.4467 58.976 28.4107 59.144H24.2587C24.4147 60.248 25.1347 60.812 26.1307 60.812C26.6707 60.812 27.1507 60.644 27.6427 60.344L28.2307 61.436C27.5707 61.892 26.7307 62.168 25.9027 62.168ZM24.2347 57.968H26.9827C26.9827 57.056 26.5747 56.48 25.7107 56.48C25.0027 56.48 24.3787 56.984 24.2347 57.968ZM32.5514 62.168C30.8714 62.168 29.7914 60.86 29.7914 58.652C29.7914 56.456 31.1714 55.124 32.6114 55.124C33.3674 55.124 33.8354 55.4 34.3274 55.844L34.2554 54.788V52.436H36.0194V62H34.5794L34.4474 61.304H34.4114C33.9194 61.796 33.2474 62.168 32.5514 62.168ZM32.9954 60.716C33.4754 60.716 33.8714 60.524 34.2554 60.032V57.08C33.8594 56.708 33.4274 56.564 33.0074 56.564C32.2514 56.564 31.6034 57.284 31.6034 58.628C31.6034 60.032 32.1194 60.716 32.9954 60.716ZM41.078 62.168C39.194 62.168 37.73 60.872 37.73 58.652C37.73 56.468 39.266 55.124 40.85 55.124C42.71 55.124 43.658 56.468 43.658 58.328C43.658 58.664 43.622 58.976 43.586 59.144H39.434C39.59 60.248 40.31 60.812 41.306 60.812C41.846 60.812 42.326 60.644 42.818 60.344L43.406 61.436C42.746 61.892 41.906 62.168 41.078 62.168ZM39.41 57.968H42.158C42.158 57.056 41.75 56.48 40.886 56.48C40.178 56.48 39.554 56.984 39.41 57.968ZM48.2907 62.168C46.4067 62.168 44.9427 60.872 44.9427 58.652C44.9427 56.468 46.4787 55.124 48.0627 55.124C49.9227 55.124 50.8707 56.468 50.8707 58.328C50.8707 58.664 50.8347 58.976 50.7987 59.144H46.6467C46.8027 60.248 47.5227 60.812 48.5187 60.812C49.0587 60.812 49.5387 60.644 50.0307 60.344L50.6187 61.436C49.9587 61.892 49.1187 62.168 48.2907 62.168ZM46.6227 57.968H49.3707C49.3707 57.056 48.9627 56.48 48.0987 56.48C47.3907 56.48 46.7667 56.984 46.6227 57.968ZM52.5753 62V55.292H54.0033L54.1473 56.18H54.1833C54.7473 55.604 55.3713 55.124 56.2353 55.124C57.2073 55.124 57.7713 55.544 58.0833 56.288C58.7073 55.652 59.3553 55.124 60.2313 55.124C61.6593 55.124 62.3073 56.132 62.3073 57.812V62H60.5433V58.04C60.5433 56.984 60.2553 56.636 59.6073 56.636C59.2233 56.636 58.8033 56.876 58.3233 57.38V62H56.5593V58.04C56.5593 56.984 56.2593 56.636 55.6113 56.636C55.2393 56.636 54.7953 56.876 54.3393 57.38V62H52.5753Z" fill="#FFB129"/>
</svg>
