<svg width="55" height="55" viewBox="0 0 55 55" fill="none" xmlns="http://www.w3.org/2000/svg">
<path d="M53.6083 33.4099C51.9975 31.8629 51.125 29.7106 51.125 27.4911C51.125 25.2715 51.9975 23.1865 53.6083 21.5723C53.8768 21.3033 54.1453 21.1015 54.4808 20.8325C54.9507 20.4962 55.0849 19.8908 54.9507 19.3528C54.4137 17.4022 53.6083 15.519 52.6687 13.7703C52.4002 13.2995 51.8633 13.0304 51.3264 13.0977C50.8566 13.1649 50.521 13.1649 50.1854 13.1649C45.5543 13.1649 41.7958 9.39843 41.7958 4.82482C41.7958 4.48853 41.7958 4.08498 41.8629 3.68142C41.9301 3.14335 41.6616 2.60528 41.1918 2.33624C39.4467 1.39462 37.5675 0.587511 35.6211 0.0494397C35.0842 -0.0850782 34.4801 0.116698 34.1445 0.520252C33.8761 0.856547 33.6076 1.19284 33.4063 1.39462C31.7955 2.94157 29.7148 3.81594 27.5 3.81594C25.2852 3.81594 23.1374 2.94157 21.5937 1.39462C21.3253 1.12558 21.1239 0.856547 20.8555 0.520252C20.5199 0.0494396 19.9158 -0.0850782 19.3789 0.0494397C17.4325 0.65477 15.5533 1.39462 13.8082 2.33624C13.3384 2.60528 13.0699 3.14335 13.1371 3.68142C13.2042 4.15224 13.2042 4.48853 13.2042 4.82482C13.2042 9.46569 9.44565 13.1649 4.81461 13.1649C4.47903 13.1649 4.07633 13.1649 3.67363 13.0977C3.1367 13.0304 2.59976 13.2995 2.3313 13.7703C1.39167 15.519 0.586267 17.4022 0.049335 19.3528C-0.0848981 19.8908 0.0493349 20.4962 0.519151 20.8325C0.92185 21.1015 1.19032 21.3705 1.39167 21.5723C4.68038 24.8007 4.68038 30.1142 1.39167 33.4099C1.1232 33.6789 0.854733 33.8807 0.519151 34.1497C0.0493349 34.486 -0.0848981 35.0914 0.049335 35.6294C0.653384 37.5799 1.39167 39.4632 2.3313 41.2119C2.59976 41.6827 3.1367 41.9518 3.67363 41.8845C4.14344 41.8172 4.47903 41.8172 4.81461 41.8172C9.44565 41.8172 13.2042 45.5837 13.2042 50.1574C13.2042 50.4936 13.2042 50.8972 13.1371 51.3008C13.0699 51.8388 13.3384 52.3769 13.8082 52.6459C15.5533 53.5876 17.4325 54.3947 19.3789 54.9327C19.9158 55.0673 20.5199 54.9327 20.8555 54.4619C21.1239 54.1256 21.3924 53.7893 21.5937 53.5876C23.2045 52.0406 25.2852 51.1662 27.5 51.1662C29.7148 51.1662 31.8626 52.0406 33.4063 53.5876C33.6747 53.8566 33.8761 54.1256 34.1445 54.4619C34.413 54.7982 34.8157 55 35.2184 55C35.3526 55 35.4869 55 35.6211 54.9327C37.5675 54.3274 39.4467 53.5876 41.1918 52.6459C41.6616 52.3769 41.9301 51.8388 41.8629 51.3008C41.7958 50.8299 41.7958 50.4936 41.7958 50.1574C41.7958 45.5165 45.5543 41.8172 50.1854 41.8172C50.521 41.8172 50.9237 41.8172 51.3264 41.8845C51.8633 41.9518 52.4002 41.6827 52.6687 41.2119C53.6083 39.4632 54.4137 37.5799 54.9507 35.6294C55.0849 35.0914 54.9507 34.486 54.4808 34.1497C54.1453 33.8807 53.8097 33.6789 53.6083 33.4099ZM50.7223 39.1269H50.1183C44.0107 39.1269 39.044 44.104 39.044 50.1574V50.7627C37.9702 51.3008 36.8292 51.7716 35.6211 52.1751L35.2184 51.7716C33.1378 49.6865 30.386 48.5431 27.4329 48.5431C24.4798 48.5431 21.728 49.6865 19.6474 51.7716L19.2447 52.1751C18.1037 51.7716 16.9627 51.3008 15.8217 50.7627V50.1574C15.8217 44.0368 10.8551 39.1269 4.74749 39.1269H4.14344C3.60651 38.0507 3.1367 36.9073 2.734 35.6967L3.1367 35.2931C7.43215 30.9886 7.43215 23.9936 3.1367 19.6218L2.734 19.2182C3.1367 18.0748 3.60651 16.9314 4.14344 15.788H4.74749C10.8551 15.788 15.8217 10.8109 15.8217 4.75757V4.15224C16.8956 3.61416 18.0366 3.14335 19.2447 2.7398L19.6474 3.14335C21.728 5.22838 24.4798 6.37178 27.4329 6.37178C30.386 6.37178 33.1378 5.22838 35.2184 3.14335L35.6211 2.7398C36.7621 3.14335 37.9031 3.61416 39.044 4.15224V4.75757C39.044 10.8781 44.0107 15.788 50.1183 15.788H50.7223C51.2593 16.8642 51.7291 18.0076 52.1318 19.2182L51.7291 19.6218C49.6485 21.7068 48.5075 24.4644 48.5075 27.4238C48.5075 30.3832 49.6485 33.1408 51.7291 35.2259L52.1318 35.6294C51.7291 36.9073 51.2593 38.0507 50.7223 39.1269ZM27.5 11.4835C18.7077 11.4835 11.5263 18.6802 11.5263 27.4911C11.5263 36.302 18.7077 43.4987 27.5 43.4987C36.2923 43.4987 43.4737 36.302 43.4737 27.4911C43.4737 18.6802 36.2923 11.4835 27.5 11.4835ZM27.5 40.8084C20.1843 40.8084 14.2109 34.8223 14.2109 27.4911C14.2109 20.1599 20.1843 14.1738 27.5 14.1738C34.8157 14.1738 40.7891 20.1599 40.7891 27.4911C40.7891 34.8223 34.8157 40.8084 27.5 40.8084Z" fill="#C5BFBB"/>
</svg>
