<svg width="390" height="844" viewBox="0 0 390 844" fill="none" xmlns="http://www.w3.org/2000/svg">
<rect width="390" height="844" fill="#333130"/>
<path d="M144.474 137C142.084 137 139.951 136.499 138.074 135.496V137H127.642V100.808L125.722 99.656V96.68L135.994 95.08H138.074V112.296C138.415 111.912 138.788 111.549 139.194 111.208C139.599 110.867 140.09 110.536 140.666 110.216C141.242 109.896 141.892 109.64 142.618 109.448C143.364 109.256 144.154 109.16 144.986 109.16C148.506 109.16 151.087 110.365 152.73 112.776C154.394 115.187 155.226 118.525 155.226 122.792C155.226 124.797 155.002 126.653 154.554 128.36C154.106 130.045 153.444 131.539 152.57 132.84C151.695 134.141 150.564 135.165 149.178 135.912C147.812 136.637 146.244 137 144.474 137ZM139.77 132.552C142.628 132.552 144.058 130.365 144.058 125.992V120.552C144.058 118.717 143.716 117.309 143.034 116.328C142.372 115.325 141.519 114.824 140.474 114.824C139.684 114.824 138.884 115.112 138.074 115.688V132.328C138.394 132.413 138.692 132.477 138.97 132.52C139.247 132.541 139.514 132.552 139.77 132.552ZM174.206 132.744C174.078 133.043 173.812 133.437 173.407 133.928C173.022 134.419 172.51 134.963 171.871 135.56C171.23 136.136 170.441 136.627 169.503 137.032C168.564 137.459 167.615 137.672 166.654 137.672C163.646 137.672 161.492 136.776 160.19 134.984C158.91 133.192 158.271 130.205 158.271 126.024V114.632L157.15 113.48V109.8H168.767V128.04C168.745 129 168.905 129.715 169.247 130.184C169.588 130.632 170.207 130.856 171.102 130.856C171.231 130.856 171.348 130.856 171.455 130.856C171.561 130.835 171.668 130.813 171.774 130.792C171.881 130.749 171.966 130.717 172.03 130.696C172.116 130.675 172.212 130.643 172.319 130.6C172.425 130.536 172.51 130.483 172.574 130.44C172.638 130.397 172.724 130.344 172.83 130.28C172.937 130.195 173.012 130.131 173.055 130.088C173.119 130.045 173.204 129.981 173.311 129.896C173.438 129.789 173.534 129.715 173.598 129.672V114.632L171.871 113.48V109.8H184.062V137H175.198L174.206 132.744ZM196.881 137.672C194.875 137.672 192.849 137.341 190.801 136.68C188.753 135.997 187.441 135.336 186.865 134.696L187.697 129.544C188.422 130.248 189.627 130.856 191.313 131.368C193.019 131.88 194.758 132.136 196.529 132.136C197.809 132.136 198.683 131.976 199.153 131.656C199.643 131.336 199.889 130.888 199.889 130.312C199.889 129.757 199.462 129.267 198.609 128.84C197.755 128.392 196.369 127.88 194.449 127.304C189.478 125.811 186.993 122.717 186.993 118.024C186.993 116.104 187.547 114.461 188.657 113.096C189.766 111.709 191.185 110.707 192.913 110.088C194.641 109.469 196.571 109.16 198.705 109.16C202.353 109.16 205.041 109.832 206.769 111.176C207.153 111.539 207.345 111.72 207.345 111.72L205.937 116.296C204.529 114.909 202.587 114.216 200.113 114.216C198.086 114.216 197.073 114.813 197.073 116.008C197.073 116.349 197.147 116.637 197.297 116.872C197.446 117.085 197.691 117.277 198.033 117.448C198.395 117.597 198.747 117.725 199.089 117.832C199.43 117.917 199.91 118.045 200.529 118.216C201.147 118.365 201.681 118.504 202.129 118.632C204.625 119.464 206.438 120.637 207.569 122.152C208.699 123.667 209.265 125.555 209.265 127.816C209.265 134.387 205.137 137.672 196.881 137.672ZM220.412 137.672C218.407 137.672 216.38 137.341 214.332 136.68C212.284 135.997 210.972 135.336 210.396 134.696L211.228 129.544C211.953 130.248 213.159 130.856 214.844 131.368C216.551 131.88 218.289 132.136 220.06 132.136C221.34 132.136 222.215 131.976 222.684 131.656C223.175 131.336 223.42 130.888 223.42 130.312C223.42 129.757 222.993 129.267 222.14 128.84C221.287 128.392 219.9 127.88 217.98 127.304C213.009 125.811 210.524 122.717 210.524 118.024C210.524 116.104 211.079 114.461 212.188 113.096C213.297 111.709 214.716 110.707 216.444 110.088C218.172 109.469 220.103 109.16 222.236 109.16C225.884 109.16 228.572 109.832 230.3 111.176C230.684 111.539 230.876 111.72 230.876 111.72L229.468 116.296C228.06 114.909 226.119 114.216 223.644 114.216C221.617 114.216 220.604 114.813 220.604 116.008C220.604 116.349 220.679 116.637 220.828 116.872C220.977 117.085 221.223 117.277 221.564 117.448C221.927 117.597 222.279 117.725 222.62 117.832C222.961 117.917 223.441 118.045 224.06 118.216C224.679 118.365 225.212 118.504 225.66 118.632C228.156 119.464 229.969 120.637 231.1 122.152C232.231 123.667 232.796 125.555 232.796 127.816C232.796 134.387 228.668 137.672 220.412 137.672ZM245.863 137H235.527V116.296L233.607 115.112V111.688L240.487 109.8H245.927V113.928L246.311 113.448C246.567 113.107 246.941 112.701 247.431 112.232C247.943 111.763 248.509 111.304 249.127 110.856C249.746 110.387 250.482 109.992 251.335 109.672C252.21 109.331 253.063 109.16 253.895 109.16C256.818 109.16 258.877 109.96 260.071 111.56C261.287 113.16 261.895 115.837 261.895 119.592C261.895 119.72 261.895 119.912 261.895 120.168C261.874 120.424 261.863 120.627 261.863 120.776V137H251.303V119.848C251.367 117.843 250.514 116.84 248.743 116.84C248.615 116.84 248.487 116.851 248.359 116.872C248.253 116.893 248.146 116.915 248.039 116.936C247.954 116.957 247.847 117 247.719 117.064C247.613 117.107 247.517 117.149 247.431 117.192C247.346 117.213 247.25 117.267 247.143 117.352C247.037 117.416 246.951 117.469 246.887 117.512C246.823 117.555 246.727 117.629 246.599 117.736C246.493 117.821 246.407 117.885 246.343 117.928C246.301 117.971 246.215 118.045 246.087 118.152C245.981 118.237 245.906 118.301 245.863 118.344V137Z" fill="#FFB129"/>
<path d="M107.135 357.68V366H100.053V340.997H102.869C103.551 340.997 104.568 340.969 105.919 340.912C107.271 340.841 108.387 340.805 109.269 340.805C112.341 340.805 114.631 341.481 116.138 342.832C117.66 344.183 118.421 346.252 118.421 349.04C118.421 350.69 118.058 352.155 117.333 353.435C116.622 354.715 115.676 355.732 114.495 356.485C115.135 356.642 115.683 357.004 116.138 357.573C116.608 358.142 116.97 358.818 117.226 359.6C117.482 360.368 117.703 361.15 117.887 361.947C118.087 362.729 118.307 363.504 118.549 364.272C118.805 365.04 119.082 365.616 119.381 366H111.509C111.352 365.801 111.231 365.246 111.146 364.336C111.061 363.412 110.94 362.309 110.783 361.029C110.641 359.735 110.435 358.654 110.165 357.787C110.136 357.787 110.101 357.787 110.058 357.787C109.788 357.787 109.496 357.787 109.184 357.787C108.885 357.772 108.622 357.758 108.394 357.744C108.167 357.73 107.925 357.716 107.669 357.701C107.427 357.687 107.249 357.68 107.135 357.68ZM107.135 353.712H107.818C108.174 353.712 108.472 353.698 108.714 353.669C108.956 353.641 109.219 353.591 109.503 353.52C109.802 353.435 110.044 353.307 110.229 353.136C110.428 352.965 110.613 352.745 110.783 352.475C110.954 352.204 111.082 351.856 111.167 351.429C111.253 351.003 111.295 350.505 111.295 349.936V348.251C111.295 347.013 110.968 346.153 110.314 345.669C109.674 345.172 108.75 344.923 107.541 344.923H107.135V353.712ZM120.977 366V352.197L119.697 351.408V349.125L124.283 347.867H127.846V366H120.977ZM124.07 345.904L120.571 342.384V341.637L124.07 338.139H124.88L128.528 341.637V342.384L124.88 345.904H124.07ZM142.714 366L141.882 363.248C141.769 363.447 141.633 363.646 141.477 363.845C141.335 364.044 141.1 364.3 140.773 364.613C140.446 364.912 140.097 365.175 139.728 365.403C139.358 365.63 138.896 365.829 138.341 366C137.786 366.171 137.203 366.256 136.592 366.256C134.245 366.256 132.524 365.452 131.429 363.845C130.334 362.238 129.786 360.005 129.786 357.147C129.786 355.355 130.042 353.762 130.554 352.368C131.066 350.96 131.87 349.829 132.965 348.976C134.06 348.123 135.383 347.696 136.933 347.696C137.857 347.696 138.682 347.796 139.408 347.995C140.133 348.194 140.759 348.436 141.285 348.72V342.256L138.938 341.467V339.12L146.49 338.053H148.154V366H142.714ZM139.706 362.075C139.962 362.075 140.225 362.032 140.496 361.947C140.766 361.847 141.029 361.712 141.285 361.541V350.811C140.844 350.711 140.439 350.661 140.069 350.661C138.177 350.676 137.225 352.133 137.21 355.035V358.021C137.21 359.358 137.445 360.368 137.914 361.051C138.384 361.733 138.981 362.075 139.706 362.075ZM160.618 354.971C160.618 353.164 160.525 351.884 160.34 351.131C160.155 350.377 159.814 350 159.316 350C158.89 350 158.541 350.078 158.271 350.235C158.001 350.377 157.802 350.612 157.674 350.939C157.546 351.252 157.46 351.579 157.418 351.92C157.389 352.247 157.375 352.667 157.375 353.179V354.971H160.618ZM158.911 366.448C157.318 366.448 155.931 366.206 154.751 365.723C153.585 365.239 152.66 364.564 151.978 363.696C151.309 362.828 150.819 361.854 150.506 360.773C150.193 359.678 150.036 358.462 150.036 357.125C150.036 353.94 150.847 351.529 152.468 349.893C154.09 348.258 156.358 347.44 159.274 347.44C162.075 347.44 164.081 348.101 165.29 349.424C166.499 350.732 167.103 352.844 167.103 355.76V358.128H157.354V358.533C157.354 359.372 157.439 360.062 157.61 360.603C157.795 361.143 158.058 361.541 158.399 361.797C158.74 362.053 159.089 362.224 159.444 362.309C159.8 362.395 160.234 362.437 160.746 362.437C161.243 362.437 161.777 362.373 162.346 362.245C162.929 362.117 163.512 361.918 164.095 361.648C164.692 361.378 165.19 361.058 165.588 360.688L166.847 362.843C166.321 363.696 165.546 364.414 164.522 364.997C163.512 365.566 162.538 365.95 161.599 366.149C160.66 366.348 159.764 366.448 158.911 366.448ZM182.969 366.448C181.049 366.448 179.705 365.872 178.937 364.72C178.183 363.568 177.806 361.62 177.806 358.875V351.621H176.334V348.656L178.851 347.867L181.027 342.896H184.782V347.867H188.28V351.621H184.718V359.557C184.718 360.695 184.881 361.449 185.208 361.819C185.536 362.188 186.04 362.373 186.723 362.373C187.022 362.373 187.292 362.338 187.534 362.267C187.776 362.196 187.975 362.096 188.131 361.968V364.869C187.918 365.083 187.641 365.296 187.299 365.509C186.958 365.708 186.389 365.915 185.592 366.128C184.81 366.341 183.936 366.448 182.969 366.448ZM196.777 366H189.865V341.872L188.585 341.104V339.12L195.433 338.053H196.82V350.619L197.076 350.299C197.247 350.071 197.496 349.801 197.823 349.488C198.164 349.175 198.541 348.869 198.953 348.571C199.366 348.258 199.856 347.995 200.425 347.781C201.008 347.554 201.577 347.44 202.132 347.44C204.08 347.44 205.453 347.973 206.249 349.04C207.06 350.107 207.465 351.892 207.465 354.395C207.465 354.48 207.465 354.608 207.465 354.779C207.451 354.949 207.444 355.084 207.444 355.184V366H200.404V354.565C200.447 353.228 199.878 352.56 198.697 352.56C198.584 352.56 198.47 352.567 198.356 352.581C198.256 352.596 198.15 352.631 198.036 352.688C197.922 352.745 197.83 352.788 197.759 352.816C197.702 352.844 197.609 352.901 197.481 352.987C197.368 353.072 197.289 353.129 197.247 353.157C197.218 353.186 197.133 353.257 196.991 353.371C196.863 353.484 196.792 353.548 196.777 353.563V366ZM219.68 354.971C219.68 353.164 219.588 351.884 219.403 351.131C219.218 350.377 218.877 350 218.379 350C217.952 350 217.604 350.078 217.333 350.235C217.063 350.377 216.864 350.612 216.736 350.939C216.608 351.252 216.523 351.579 216.48 351.92C216.452 352.247 216.438 352.667 216.438 353.179V354.971H219.68ZM217.974 366.448C216.381 366.448 214.994 366.206 213.813 365.723C212.647 365.239 211.723 364.564 211.04 363.696C210.372 362.828 209.881 361.854 209.568 360.773C209.255 359.678 209.099 358.462 209.099 357.125C209.099 353.94 209.909 351.529 211.531 349.893C213.152 348.258 215.421 347.44 218.336 347.44C221.138 347.44 223.143 348.101 224.352 349.424C225.561 350.732 226.166 352.844 226.166 355.76V358.128H216.416V358.533C216.416 359.372 216.502 360.062 216.672 360.603C216.857 361.143 217.12 361.541 217.462 361.797C217.803 362.053 218.151 362.224 218.507 362.309C218.862 362.395 219.296 362.437 219.808 362.437C220.306 362.437 220.839 362.373 221.408 362.245C221.991 362.117 222.574 361.918 223.158 361.648C223.755 361.378 224.253 361.058 224.651 360.688L225.91 362.843C225.383 363.696 224.608 364.414 223.584 364.997C222.574 365.566 221.6 365.95 220.661 366.149C219.723 366.348 218.827 366.448 217.974 366.448ZM247.962 366C246.369 366 244.947 365.666 243.695 364.997V366H236.74V341.872L235.46 341.104V339.12L242.308 338.053H243.695V349.531C243.923 349.275 244.171 349.033 244.442 348.805C244.712 348.578 245.039 348.357 245.423 348.144C245.807 347.931 246.241 347.76 246.724 347.632C247.222 347.504 247.748 347.44 248.303 347.44C250.65 347.44 252.371 348.244 253.466 349.851C254.575 351.458 255.13 353.684 255.13 356.528C255.13 357.865 254.98 359.102 254.682 360.24C254.383 361.364 253.942 362.359 253.359 363.227C252.776 364.094 252.022 364.777 251.098 365.275C250.187 365.758 249.142 366 247.962 366ZM244.826 363.035C246.731 363.035 247.684 361.577 247.684 358.661V355.035C247.684 353.812 247.457 352.873 247.002 352.219C246.561 351.55 245.992 351.216 245.295 351.216C244.769 351.216 244.235 351.408 243.695 351.792V362.885C243.908 362.942 244.107 362.985 244.292 363.013C244.477 363.028 244.655 363.035 244.826 363.035ZM267.783 363.163C267.698 363.362 267.52 363.625 267.25 363.952C266.994 364.279 266.653 364.642 266.226 365.04C265.799 365.424 265.273 365.751 264.648 366.021C264.022 366.306 263.389 366.448 262.749 366.448C260.743 366.448 259.307 365.851 258.439 364.656C257.586 363.461 257.16 361.47 257.16 358.683V351.088L256.413 350.32V347.867H264.157V360.027C264.143 360.667 264.249 361.143 264.477 361.456C264.704 361.755 265.117 361.904 265.714 361.904C265.8 361.904 265.878 361.904 265.949 361.904C266.02 361.89 266.091 361.876 266.162 361.861C266.233 361.833 266.29 361.812 266.333 361.797C266.39 361.783 266.454 361.762 266.525 361.733C266.596 361.691 266.653 361.655 266.695 361.627C266.738 361.598 266.795 361.563 266.866 361.52C266.937 361.463 266.987 361.42 267.016 361.392C267.058 361.364 267.115 361.321 267.186 361.264C267.271 361.193 267.335 361.143 267.378 361.115V351.088L266.226 350.32V347.867H274.354V366H268.445L267.783 363.163ZM282.9 366.448C281.563 366.448 280.212 366.228 278.846 365.787C277.481 365.332 276.606 364.891 276.222 364.464L276.777 361.029C277.261 361.499 278.064 361.904 279.188 362.245C280.325 362.587 281.485 362.757 282.665 362.757C283.518 362.757 284.101 362.651 284.414 362.437C284.741 362.224 284.905 361.925 284.905 361.541C284.905 361.172 284.621 360.844 284.052 360.56C283.483 360.261 282.558 359.92 281.278 359.536C277.965 358.54 276.308 356.478 276.308 353.349C276.308 352.069 276.677 350.974 277.417 350.064C278.157 349.14 279.102 348.471 280.254 348.059C281.406 347.646 282.693 347.44 284.116 347.44C286.548 347.44 288.34 347.888 289.492 348.784C289.748 349.026 289.876 349.147 289.876 349.147L288.937 352.197C287.998 351.273 286.704 350.811 285.054 350.811C283.703 350.811 283.028 351.209 283.028 352.005C283.028 352.233 283.077 352.425 283.177 352.581C283.277 352.724 283.44 352.852 283.668 352.965C283.909 353.065 284.144 353.15 284.372 353.221C284.599 353.278 284.919 353.364 285.332 353.477C285.744 353.577 286.1 353.669 286.398 353.755C288.062 354.309 289.271 355.092 290.025 356.101C290.779 357.111 291.156 358.37 291.156 359.877C291.156 364.258 288.404 366.448 282.9 366.448ZM84.8747 399.448C83.7796 399.448 82.7556 399.348 81.8027 399.149C80.864 398.964 80.0747 398.716 79.4347 398.403C78.7947 398.09 78.2684 397.791 77.856 397.507C77.4578 397.222 77.1236 396.938 76.8533 396.653L77.3867 391.469C77.9698 392.252 78.752 392.934 79.7333 393.517C80.7147 394.086 81.7742 394.371 82.912 394.371C84.0498 394.371 84.8676 394.25 85.3653 394.008C85.8773 393.766 86.1333 393.325 86.1333 392.685C86.1333 392.003 85.8418 391.42 85.2587 390.936C84.6898 390.452 83.7013 389.869 82.2933 389.187C81.7813 388.931 81.3476 388.703 80.992 388.504C80.6364 388.291 80.16 387.949 79.5627 387.48C78.9796 386.996 78.5031 386.499 78.1333 385.987C77.7636 385.46 77.4364 384.792 77.152 383.981C76.8676 383.156 76.7253 382.275 76.7253 381.336C76.7253 376.259 79.5911 373.72 85.3227 373.72C86.2329 373.72 87.0862 373.82 87.8827 374.019C88.6933 374.204 89.3262 374.41 89.7813 374.637C90.2364 374.865 90.6489 375.135 91.0187 375.448C91.4027 375.747 91.6444 375.96 91.744 376.088C91.8436 376.202 91.9147 376.294 91.9573 376.365L90.8907 380.483C90.336 379.828 89.6391 379.345 88.8 379.032C87.9751 378.705 87.1858 378.541 86.432 378.541C84.6116 378.541 83.7013 379.11 83.7013 380.248C83.7013 380.547 83.7582 380.817 83.872 381.059C83.9858 381.3 84.1707 381.521 84.4267 381.72C84.6827 381.919 84.9173 382.09 85.1307 382.232C85.3582 382.374 85.664 382.552 86.048 382.765C86.4462 382.964 86.7449 383.128 86.944 383.256C89.0204 384.138 90.5422 385.183 91.5093 386.392C92.4907 387.601 92.9813 389.073 92.9813 390.808C92.9813 393.624 92.2844 395.772 90.8907 397.251C89.5111 398.716 87.5058 399.448 84.8747 399.448ZM104.693 397.101L104.479 397.336C104.337 397.507 104.116 397.706 103.818 397.933C103.533 398.161 103.199 398.388 102.815 398.616C102.445 398.844 101.99 399.036 101.45 399.192C100.909 399.363 100.355 399.448 99.7858 399.448C95.9458 399.448 94.0258 397.549 94.0258 393.752C94.0258 393.012 94.1609 392.337 94.4312 391.725C94.7014 391.1 95.0498 390.573 95.4765 390.147C95.9032 389.72 96.4152 389.343 97.0125 389.016C97.6098 388.675 98.2072 388.412 98.8045 388.227C99.4161 388.028 100.056 387.864 100.724 387.736C101.393 387.608 101.99 387.523 102.516 387.48C103.043 387.437 103.548 387.416 104.031 387.416V387.032C104.031 386.164 103.797 385.553 103.327 385.197C102.872 384.842 102.132 384.664 101.109 384.664C100.227 384.664 99.3094 384.771 98.3565 384.984C97.4036 385.183 96.6569 385.425 96.1165 385.709L94.7512 382.808C95.7183 382.182 96.9769 381.635 98.5272 381.165C100.077 380.682 101.656 380.44 103.263 380.44C104.685 380.44 105.859 380.582 106.783 380.867C107.708 381.137 108.454 381.606 109.023 382.275C109.606 382.929 110.019 383.768 110.26 384.792C110.502 385.802 110.623 387.089 110.623 388.653V397.336L111.22 399H105.375L104.693 397.101ZM103.007 395.693C103.192 395.693 103.363 395.658 103.519 395.587C103.69 395.501 103.818 395.423 103.903 395.352C103.989 395.267 104.031 395.224 104.031 395.224V390.104C103.164 390.104 102.474 390.346 101.962 390.829C101.45 391.299 101.194 392.031 101.194 393.027C101.194 394.804 101.798 395.693 103.007 395.693ZM117.49 399L111.218 380.867H118.877L120.242 387.416L121.224 393.069L122.311 387.416L123.89 380.867H129.65L124.21 399H117.49ZM140.43 387.971C140.43 386.164 140.338 384.884 140.153 384.131C139.968 383.377 139.627 383 139.129 383C138.702 383 138.354 383.078 138.083 383.235C137.813 383.377 137.614 383.612 137.486 383.939C137.358 384.252 137.273 384.579 137.23 384.92C137.202 385.247 137.188 385.667 137.188 386.179V387.971H140.43ZM138.724 399.448C137.131 399.448 135.744 399.206 134.563 398.723C133.397 398.239 132.473 397.564 131.79 396.696C131.122 395.828 130.631 394.854 130.318 393.773C130.005 392.678 129.849 391.462 129.849 390.125C129.849 386.94 130.659 384.529 132.281 382.893C133.902 381.258 136.171 380.44 139.086 380.44C141.888 380.44 143.893 381.101 145.102 382.424C146.311 383.732 146.916 385.844 146.916 388.76V391.128H137.166V391.533C137.166 392.372 137.252 393.062 137.422 393.603C137.607 394.143 137.87 394.541 138.212 394.797C138.553 395.053 138.901 395.224 139.257 395.309C139.612 395.395 140.046 395.437 140.558 395.437C141.056 395.437 141.589 395.373 142.158 395.245C142.741 395.117 143.324 394.918 143.908 394.648C144.505 394.378 145.003 394.058 145.401 393.688L146.66 395.843C146.133 396.696 145.358 397.414 144.334 397.997C143.324 398.566 142.35 398.95 141.411 399.149C140.473 399.348 139.577 399.448 138.724 399.448ZM162.781 399.448C160.861 399.448 159.517 398.872 158.749 397.72C157.995 396.568 157.618 394.62 157.618 391.875V384.621H156.146V381.656L158.664 380.867L160.84 375.896H164.594V380.867H168.093V384.621H164.53V392.557C164.53 393.695 164.694 394.449 165.021 394.819C165.348 395.188 165.853 395.373 166.536 395.373C166.834 395.373 167.105 395.338 167.346 395.267C167.588 395.196 167.787 395.096 167.944 394.968V397.869C167.73 398.083 167.453 398.296 167.112 398.509C166.77 398.708 166.201 398.915 165.405 399.128C164.623 399.341 163.748 399.448 162.781 399.448ZM176.59 399H169.678V374.872L168.398 374.104V372.12L175.246 371.053H176.632V383.619L176.889 383.299C177.059 383.071 177.308 382.801 177.635 382.488C177.976 382.175 178.353 381.869 178.766 381.571C179.178 381.258 179.669 380.995 180.238 380.781C180.821 380.554 181.39 380.44 181.944 380.44C183.893 380.44 185.265 380.973 186.062 382.04C186.873 383.107 187.278 384.892 187.278 387.395C187.278 387.48 187.278 387.608 187.278 387.779C187.264 387.949 187.257 388.084 187.257 388.184V399H180.217V387.565C180.259 386.228 179.69 385.56 178.51 385.56C178.396 385.56 178.282 385.567 178.168 385.581C178.069 385.596 177.962 385.631 177.849 385.688C177.735 385.745 177.642 385.788 177.571 385.816C177.514 385.844 177.422 385.901 177.294 385.987C177.18 386.072 177.102 386.129 177.059 386.157C177.031 386.186 176.945 386.257 176.803 386.371C176.675 386.484 176.604 386.548 176.59 386.563V399ZM199.493 387.971C199.493 386.164 199.4 384.884 199.215 384.131C199.03 383.377 198.689 383 198.191 383C197.765 383 197.416 383.078 197.146 383.235C196.876 383.377 196.677 383.612 196.549 383.939C196.421 384.252 196.335 384.579 196.293 384.92C196.264 385.247 196.25 385.667 196.25 386.179V387.971H199.493ZM197.786 399.448C196.193 399.448 194.806 399.206 193.626 398.723C192.46 398.239 191.535 397.564 190.853 396.696C190.184 395.828 189.694 394.854 189.381 393.773C189.068 392.678 188.911 391.462 188.911 390.125C188.911 386.94 189.722 384.529 191.343 382.893C192.965 381.258 195.233 380.44 198.149 380.44C200.95 380.44 202.956 381.101 204.165 382.424C205.374 383.732 205.978 385.844 205.978 388.76V391.128H196.229V391.533C196.229 392.372 196.314 393.062 196.485 393.603C196.67 394.143 196.933 394.541 197.274 394.797C197.615 395.053 197.964 395.224 198.319 395.309C198.675 395.395 199.109 395.437 199.621 395.437C200.118 395.437 200.652 395.373 201.221 395.245C201.804 395.117 202.387 394.918 202.97 394.648C203.567 394.378 204.065 394.058 204.463 393.688L205.722 395.843C205.196 396.696 204.421 397.414 203.397 397.997C202.387 398.566 201.413 398.95 200.474 399.149C199.535 399.348 198.639 399.448 197.786 399.448ZM227.774 399C226.949 399 226.195 398.915 225.513 398.744C224.83 398.573 224.233 398.36 223.721 398.104V405.443H216.852V385.197L215.572 384.408V382.125L220.158 380.867H223.721V382.296C224.233 381.77 224.851 381.329 225.577 380.973C226.302 380.618 227.148 380.44 228.115 380.44C230.462 380.44 232.183 381.244 233.278 382.851C234.388 384.458 234.942 386.684 234.942 389.528C234.942 390.865 234.793 392.102 234.494 393.24C234.196 394.364 233.755 395.359 233.171 396.227C232.588 397.094 231.835 397.777 230.91 398.275C230 398.758 228.955 399 227.774 399ZM224.638 396.035C226.544 396.035 227.497 394.577 227.497 391.661V388.035C227.497 386.755 227.276 385.802 226.835 385.176C226.409 384.55 225.854 384.237 225.172 384.237C224.702 384.237 224.219 384.38 223.721 384.664V395.928C223.891 395.971 224.048 395.999 224.19 396.013C224.347 396.028 224.496 396.035 224.638 396.035ZM237.179 399V374.872L235.899 374.104V372.12L242.747 371.053H244.134V399H237.179ZM256.193 397.101L255.979 397.336C255.837 397.507 255.616 397.706 255.318 397.933C255.033 398.161 254.699 398.388 254.315 398.616C253.945 398.844 253.49 399.036 252.95 399.192C252.409 399.363 251.855 399.448 251.286 399.448C247.446 399.448 245.526 397.549 245.526 393.752C245.526 393.012 245.661 392.337 245.931 391.725C246.201 391.1 246.55 390.573 246.977 390.147C247.403 389.72 247.915 389.343 248.513 389.016C249.11 388.675 249.707 388.412 250.305 388.227C250.916 388.028 251.556 387.864 252.224 387.736C252.893 387.608 253.49 387.523 254.016 387.48C254.543 387.437 255.048 387.416 255.531 387.416V387.032C255.531 386.164 255.297 385.553 254.827 385.197C254.372 384.842 253.632 384.664 252.609 384.664C251.727 384.664 250.809 384.771 249.857 384.984C248.904 385.183 248.157 385.425 247.616 385.709L246.251 382.808C247.218 382.182 248.477 381.635 250.027 381.165C251.577 380.682 253.156 380.44 254.763 380.44C256.185 380.44 257.359 380.582 258.283 380.867C259.208 381.137 259.954 381.606 260.523 382.275C261.106 382.929 261.519 383.768 261.76 384.792C262.002 385.802 262.123 387.089 262.123 388.653V397.336L262.72 399H256.875L256.193 397.101ZM254.507 395.693C254.692 395.693 254.863 395.658 255.019 395.587C255.19 395.501 255.318 395.423 255.403 395.352C255.489 395.267 255.531 395.224 255.531 395.224V390.104C254.664 390.104 253.974 390.346 253.462 390.829C252.95 391.299 252.694 392.031 252.694 393.027C252.694 394.804 253.298 395.693 254.507 395.693ZM271.742 399H264.852V385.197L263.572 384.408V382.125L268.158 380.867H271.785V383.619L272.041 383.299C272.211 383.071 272.46 382.801 272.787 382.488C273.129 382.175 273.506 381.869 273.918 381.571C274.331 381.258 274.821 380.995 275.39 380.781C275.973 380.554 276.542 380.44 277.097 380.44C279.045 380.44 280.418 380.973 281.214 382.04C282.025 383.107 282.43 384.892 282.43 387.395C282.43 387.48 282.43 387.608 282.43 387.779C282.416 387.949 282.409 388.084 282.409 388.184V399H275.369V387.565C275.412 386.228 274.843 385.56 273.662 385.56C273.577 385.56 273.491 385.567 273.406 385.581C273.335 385.596 273.264 385.61 273.193 385.624C273.136 385.638 273.065 385.667 272.979 385.709C272.908 385.738 272.844 385.766 272.787 385.795C272.731 385.809 272.667 385.844 272.595 385.901C272.524 385.944 272.468 385.98 272.425 386.008C272.382 386.036 272.318 386.086 272.233 386.157C272.162 386.214 272.105 386.257 272.062 386.285C272.034 386.314 271.977 386.364 271.891 386.435C271.82 386.492 271.771 386.534 271.742 386.563V399ZM294.68 387.971C294.68 386.164 294.588 384.884 294.403 384.131C294.218 383.377 293.877 383 293.379 383C292.952 383 292.604 383.078 292.333 383.235C292.063 383.377 291.864 383.612 291.736 383.939C291.608 384.252 291.523 384.579 291.48 384.92C291.452 385.247 291.438 385.667 291.438 386.179V387.971H294.68ZM292.974 399.448C291.381 399.448 289.994 399.206 288.813 398.723C287.647 398.239 286.723 397.564 286.04 396.696C285.372 395.828 284.881 394.854 284.568 393.773C284.255 392.678 284.099 391.462 284.099 390.125C284.099 386.94 284.909 384.529 286.531 382.893C288.152 381.258 290.421 380.44 293.336 380.44C296.138 380.44 298.143 381.101 299.352 382.424C300.561 383.732 301.166 385.844 301.166 388.76V391.128H291.416V391.533C291.416 392.372 291.502 393.062 291.672 393.603C291.857 394.143 292.12 394.541 292.462 394.797C292.803 395.053 293.151 395.224 293.507 395.309C293.862 395.395 294.296 395.437 294.808 395.437C295.306 395.437 295.839 395.373 296.408 395.245C296.991 395.117 297.574 394.918 298.158 394.648C298.755 394.378 299.253 394.058 299.651 393.688L300.91 395.843C300.383 396.696 299.608 397.414 298.584 397.997C297.574 398.566 296.6 398.95 295.661 399.149C294.723 399.348 293.827 399.448 292.974 399.448ZM308.469 399.448C306.549 399.448 305.205 398.872 304.437 397.72C303.683 396.568 303.306 394.62 303.306 391.875V384.621H301.834V381.656L304.351 380.867L306.527 375.896H310.282V380.867H313.78V384.621H310.218V392.557C310.218 393.695 310.381 394.449 310.708 394.819C311.036 395.188 311.54 395.373 312.223 395.373C312.522 395.373 312.792 395.338 313.034 395.267C313.276 395.196 313.475 395.096 313.631 394.968V397.869C313.418 398.083 313.141 398.296 312.799 398.509C312.458 398.708 311.889 398.915 311.092 399.128C310.31 399.341 309.436 399.448 308.469 399.448Z" fill="#FFB129"/>
</svg>
