<svg width="390" height="844" viewBox="0 0 390 844" fill="none" xmlns="http://www.w3.org/2000/svg">
<rect width="390" height="844" fill="#333130"/>
<path d="M122.46 137H112.348L103.42 99.496H114.076L115.772 112.424L118.3 124.968L121.532 112.424L122.364 109L119.9 99.496H130.364L132.668 112.424L135.484 124.968L137.244 112.424L139.132 99.496H148.86L140.604 137H129.692L125.756 121.928L122.46 137ZM163.711 134.152L163.391 134.504C163.177 134.76 162.847 135.059 162.399 135.4C161.972 135.741 161.471 136.083 160.895 136.424C160.34 136.765 159.657 137.053 158.847 137.288C158.036 137.544 157.204 137.672 156.351 137.672C150.591 137.672 147.711 134.824 147.711 129.128C147.711 128.019 147.913 127.005 148.319 126.088C148.724 125.149 149.247 124.36 149.887 123.72C150.527 123.08 151.295 122.515 152.191 122.024C153.087 121.512 153.983 121.117 154.879 120.84C155.796 120.541 156.756 120.296 157.759 120.104C158.761 119.912 159.657 119.784 160.447 119.72C161.236 119.656 161.993 119.624 162.719 119.624V119.048C162.719 117.747 162.367 116.829 161.663 116.296C160.98 115.763 159.871 115.496 158.335 115.496C157.012 115.496 155.636 115.656 154.207 115.976C152.777 116.275 151.657 116.637 150.847 117.064L148.799 112.712C150.249 111.773 152.137 110.952 154.463 110.248C156.788 109.523 159.156 109.16 161.567 109.16C163.7 109.16 165.46 109.373 166.847 109.8C168.233 110.205 169.353 110.909 170.207 111.912C171.081 112.893 171.7 114.152 172.063 115.688C172.425 117.203 172.607 119.133 172.607 121.48V134.504L173.503 137H164.735L163.711 134.152ZM161.183 132.04C161.46 132.04 161.716 131.987 161.951 131.88C162.207 131.752 162.399 131.635 162.527 131.528C162.655 131.4 162.719 131.336 162.719 131.336V123.656C161.417 123.656 160.383 124.019 159.615 124.744C158.847 125.448 158.463 126.547 158.463 128.04C158.463 130.707 159.369 132.04 161.183 132.04ZM186.619 137H176.251V100.808L174.331 99.656V96.68L184.603 95.08H186.683V113.928L187.067 113.448C187.323 113.107 187.696 112.701 188.187 112.232C188.699 111.763 189.264 111.304 189.883 110.856C190.502 110.387 191.238 109.992 192.091 109.672C192.966 109.331 193.819 109.16 194.651 109.16C197.574 109.16 199.632 109.96 200.827 111.56C202.043 113.16 202.651 115.837 202.651 119.592C202.651 119.72 202.651 119.912 202.651 120.168C202.63 120.424 202.619 120.627 202.619 120.776V137H192.059V119.848C192.123 117.843 191.27 116.84 189.499 116.84C189.328 116.84 189.158 116.851 188.987 116.872C188.838 116.893 188.678 116.947 188.507 117.032C188.336 117.117 188.198 117.181 188.091 117.224C188.006 117.267 187.867 117.352 187.675 117.48C187.504 117.608 187.387 117.693 187.323 117.736C187.28 117.779 187.152 117.885 186.939 118.056C186.747 118.227 186.64 118.323 186.619 118.344V137ZM219.469 133.832C220.408 133.832 221.123 133.448 221.613 132.68C222.125 131.891 222.381 130.813 222.381 129.448V119.336C222.381 115.176 221.4 113.096 219.437 113.096C218.52 113.096 217.805 113.469 217.293 114.216C216.781 114.963 216.525 116.019 216.525 117.384V127.784C216.525 131.816 217.507 133.832 219.469 133.832ZM219.213 137.672C214.328 137.672 210.755 136.563 208.493 134.344C206.232 132.125 205.101 128.584 205.101 123.72C205.101 118.899 206.243 115.272 208.525 112.84C210.808 110.387 214.52 109.16 219.661 109.16C224.675 109.16 228.291 110.333 230.509 112.68C232.749 115.005 233.869 118.536 233.869 123.272C233.869 128.179 232.685 131.805 230.317 134.152C227.971 136.499 224.269 137.672 219.213 137.672ZM250.219 133.832C251.158 133.832 251.873 133.448 252.363 132.68C252.875 131.891 253.131 130.813 253.131 129.448V119.336C253.131 115.176 252.15 113.096 250.187 113.096C249.27 113.096 248.555 113.469 248.043 114.216C247.531 114.963 247.275 116.019 247.275 117.384V127.784C247.275 131.816 248.257 133.832 250.219 133.832ZM249.963 137.672C245.078 137.672 241.505 136.563 239.243 134.344C236.982 132.125 235.851 128.584 235.851 123.72C235.851 118.899 236.993 115.272 239.275 112.84C241.558 110.387 245.27 109.16 250.411 109.16C255.425 109.16 259.041 110.333 261.259 112.68C263.499 115.005 264.619 118.536 264.619 123.272C264.619 128.179 263.435 131.805 261.067 134.152C258.721 136.499 255.019 137.672 249.963 137.672ZM274.249 137.608L269.001 132.328V131.208L274.249 125.96H275.465L280.937 131.208V132.328L275.465 137.608H274.249ZM272.457 123.048C272.415 120.253 272.127 117.704 271.593 115.4C271.081 113.096 270.196 110.237 268.937 106.824C268.639 105.885 268.489 104.883 268.489 103.816C268.489 101.768 269.033 100.232 270.121 99.208C271.231 98.1627 272.831 97.64 274.921 97.64C277.119 97.64 278.729 98.2053 279.753 99.336C280.777 100.445 281.289 101.981 281.289 103.944C281.289 104.989 281.151 105.949 280.873 106.824C279.615 110.237 278.719 113.096 278.185 115.4C277.673 117.704 277.396 120.253 277.353 123.048H272.457Z" fill="#FFB129"/>
<path d="M66.0536 274V254.651H61.0616V248.997H78.2563V254.651H73.2642V274H66.0536ZM86.9961 274H80.0841V249.872L78.8041 249.104V247.12L85.6521 246.053H87.0387V258.619L87.2948 258.299C87.4654 258.071 87.7143 257.801 88.0414 257.488C88.3827 257.175 88.7596 256.869 89.1721 256.571C89.5845 256.258 90.0752 255.995 90.6441 255.781C91.2272 255.554 91.7961 255.44 92.3507 255.44C94.2992 255.44 95.6716 255.973 96.4681 257.04C97.2788 258.107 97.6841 259.892 97.6841 262.395C97.6841 262.48 97.6841 262.608 97.6841 262.779C97.6699 262.949 97.6628 263.084 97.6628 263.184V274H90.6228V262.565C90.6654 261.228 90.0965 260.56 88.9161 260.56C88.8023 260.56 88.6885 260.567 88.5747 260.581C88.4752 260.596 88.3685 260.631 88.2548 260.688C88.141 260.745 88.0485 260.788 87.9774 260.816C87.9205 260.844 87.8281 260.901 87.7001 260.987C87.5863 261.072 87.5081 261.129 87.4654 261.157C87.437 261.186 87.3516 261.257 87.2094 261.371C87.0814 261.484 87.0103 261.548 86.9961 261.563V274ZM109.536 272.101L109.323 272.336C109.181 272.507 108.96 272.706 108.662 272.933C108.377 273.161 108.043 273.388 107.659 273.616C107.289 273.844 106.834 274.036 106.294 274.192C105.753 274.363 105.198 274.448 104.63 274.448C100.79 274.448 98.8696 272.549 98.8696 268.752C98.8696 268.012 99.0047 267.337 99.2749 266.725C99.5451 266.1 99.8936 265.573 100.32 265.147C100.747 264.72 101.259 264.343 101.856 264.016C102.454 263.675 103.051 263.412 103.648 263.227C104.26 263.028 104.9 262.864 105.568 262.736C106.237 262.608 106.834 262.523 107.36 262.48C107.886 262.437 108.391 262.416 108.875 262.416V262.032C108.875 261.164 108.64 260.553 108.171 260.197C107.716 259.842 106.976 259.664 105.952 259.664C105.07 259.664 104.153 259.771 103.2 259.984C102.247 260.183 101.501 260.425 100.96 260.709L99.5949 257.808C100.562 257.182 101.821 256.635 103.371 256.165C104.921 255.682 106.5 255.44 108.107 255.44C109.529 255.44 110.702 255.582 111.627 255.867C112.551 256.137 113.298 256.606 113.867 257.275C114.45 257.929 114.862 258.768 115.104 259.792C115.346 260.802 115.467 262.089 115.467 263.653V272.336L116.064 274H110.219L109.536 272.101ZM107.851 270.693C108.036 270.693 108.206 270.658 108.363 270.587C108.534 270.501 108.662 270.423 108.747 270.352C108.832 270.267 108.875 270.224 108.875 270.224V265.104C108.007 265.104 107.318 265.346 106.806 265.829C106.294 266.299 106.038 267.031 106.038 268.027C106.038 269.804 106.642 270.693 107.851 270.693ZM125.086 274H118.195V260.197L116.915 259.408V257.125L121.502 255.867H125.129V258.619L125.385 258.299C125.555 258.071 125.804 257.801 126.131 257.488C126.473 257.175 126.849 256.869 127.262 256.571C127.674 256.258 128.165 255.995 128.734 255.781C129.317 255.554 129.886 255.44 130.441 255.44C132.389 255.44 133.761 255.973 134.558 257.04C135.369 258.107 135.774 259.892 135.774 262.395C135.774 262.48 135.774 262.608 135.774 262.779C135.76 262.949 135.753 263.084 135.753 263.184V274H128.713V262.565C128.755 261.228 128.186 260.56 127.006 260.56C126.921 260.56 126.835 260.567 126.75 260.581C126.679 260.596 126.608 260.61 126.537 260.624C126.48 260.638 126.409 260.667 126.323 260.709C126.252 260.738 126.188 260.766 126.131 260.795C126.074 260.809 126.01 260.844 125.939 260.901C125.868 260.944 125.811 260.98 125.769 261.008C125.726 261.036 125.662 261.086 125.577 261.157C125.505 261.214 125.449 261.257 125.406 261.285C125.377 261.314 125.321 261.364 125.235 261.435C125.164 261.492 125.114 261.534 125.086 261.563V274ZM148.835 274L145.528 265.275L149.027 255.867H157.027L151.437 264.251L157.155 274H148.835ZM138.147 274V249.872L136.867 249.104V247.12L143.715 246.053H145.101V274H138.147ZM163.556 274.448C162.219 274.448 160.868 274.228 159.503 273.787C158.137 273.332 157.263 272.891 156.879 272.464L157.433 269.029C157.917 269.499 158.72 269.904 159.844 270.245C160.982 270.587 162.141 270.757 163.321 270.757C164.175 270.757 164.758 270.651 165.071 270.437C165.398 270.224 165.561 269.925 165.561 269.541C165.561 269.172 165.277 268.844 164.708 268.56C164.139 268.261 163.215 267.92 161.935 267.536C158.621 266.54 156.964 264.478 156.964 261.349C156.964 260.069 157.334 258.974 158.073 258.064C158.813 257.14 159.759 256.471 160.911 256.059C162.063 255.646 163.35 255.44 164.772 255.44C167.204 255.44 168.996 255.888 170.148 256.784C170.404 257.026 170.532 257.147 170.532 257.147L169.593 260.197C168.655 259.273 167.36 258.811 165.711 258.811C164.359 258.811 163.684 259.209 163.684 260.005C163.684 260.233 163.734 260.425 163.833 260.581C163.933 260.724 164.096 260.852 164.324 260.965C164.566 261.065 164.8 261.15 165.028 261.221C165.255 261.278 165.575 261.364 165.988 261.477C166.4 261.577 166.756 261.669 167.055 261.755C168.719 262.309 169.927 263.092 170.681 264.101C171.435 265.111 171.812 266.37 171.812 267.877C171.812 272.258 169.06 274.448 163.556 274.448ZM189.619 274H182.686V259.621H180.617V256.784L182.771 255.867V254.011C182.771 252.574 182.97 251.33 183.369 250.277C183.767 249.225 184.321 248.407 185.033 247.824C185.758 247.241 186.554 246.821 187.422 246.565C188.304 246.295 189.285 246.16 190.366 246.16C191.333 246.16 192.243 246.288 193.097 246.544C193.95 246.8 194.483 247.035 194.697 247.248L193.886 250.491C193.203 250.149 192.499 249.979 191.774 249.979C191.589 249.979 191.418 249.993 191.262 250.021C190.167 250.192 189.619 251.124 189.619 252.816V255.867H192.371V259.621H189.619V274ZM202.771 271.888C203.397 271.888 203.873 271.632 204.201 271.12C204.542 270.594 204.713 269.876 204.713 268.965V262.224C204.713 259.451 204.058 258.064 202.75 258.064C202.138 258.064 201.662 258.313 201.321 258.811C200.979 259.308 200.809 260.012 200.809 260.923V267.856C200.809 270.544 201.463 271.888 202.771 271.888ZM202.601 274.448C199.344 274.448 196.961 273.708 195.454 272.229C193.946 270.75 193.193 268.389 193.193 265.147C193.193 261.932 193.953 259.515 195.475 257.893C196.997 256.258 199.472 255.44 202.899 255.44C206.241 255.44 208.652 256.222 210.131 257.787C211.625 259.337 212.371 261.691 212.371 264.848C212.371 268.119 211.582 270.537 210.003 272.101C208.439 273.666 205.971 274.448 202.601 274.448ZM221.586 274H214.695V260.197L213.415 259.408V256.997L218.002 255.867H219.73L220.349 260.944C220.932 257.46 222.802 255.717 225.959 255.717C226.315 255.717 226.685 255.781 227.069 255.909L226.343 263.504C226.045 263.234 225.39 263.099 224.381 263.099C222.93 263.099 221.998 263.483 221.586 264.251V274ZM242.312 274.448C240.392 274.448 239.048 273.872 238.28 272.72C237.526 271.568 237.15 269.62 237.15 266.875V259.621H235.678V256.656L238.195 255.867L240.371 250.896H244.126V255.867H247.624V259.621H244.062V267.557C244.062 268.695 244.225 269.449 244.552 269.819C244.879 270.188 245.384 270.373 246.067 270.373C246.366 270.373 246.636 270.338 246.878 270.267C247.119 270.196 247.318 270.096 247.475 269.968V272.869C247.262 273.083 246.984 273.296 246.643 273.509C246.302 273.708 245.733 273.915 244.936 274.128C244.154 274.341 243.279 274.448 242.312 274.448ZM258.724 272.101L258.51 272.336C258.368 272.507 258.148 272.706 257.849 272.933C257.565 273.161 257.23 273.388 256.846 273.616C256.477 273.844 256.022 274.036 255.481 274.192C254.941 274.363 254.386 274.448 253.817 274.448C249.977 274.448 248.057 272.549 248.057 268.752C248.057 268.012 248.192 267.337 248.462 266.725C248.733 266.1 249.081 265.573 249.508 265.147C249.934 264.72 250.446 264.343 251.044 264.016C251.641 263.675 252.238 263.412 252.836 263.227C253.447 263.028 254.087 262.864 254.756 262.736C255.424 262.608 256.022 262.523 256.548 262.48C257.074 262.437 257.579 262.416 258.062 262.416V262.032C258.062 261.164 257.828 260.553 257.358 260.197C256.903 259.842 256.164 259.664 255.14 259.664C254.258 259.664 253.341 259.771 252.388 259.984C251.435 260.183 250.688 260.425 250.148 260.709L248.782 257.808C249.75 257.182 251.008 256.635 252.558 256.165C254.109 255.682 255.687 255.44 257.294 255.44C258.717 255.44 259.89 255.582 260.814 255.867C261.739 256.137 262.486 256.606 263.054 257.275C263.638 257.929 264.05 258.768 264.292 259.792C264.534 260.802 264.654 262.089 264.654 263.653V272.336L265.252 274H259.406L258.724 272.101ZM257.038 270.693C257.223 270.693 257.394 270.658 257.55 270.587C257.721 270.501 257.849 270.423 257.934 270.352C258.02 270.267 258.062 270.224 258.062 270.224V265.104C257.195 265.104 256.505 265.346 255.993 265.829C255.481 266.299 255.225 267.031 255.225 268.027C255.225 269.804 255.83 270.693 257.038 270.693ZM277.772 274L274.465 265.275L277.964 255.867H285.964L280.375 264.251L286.092 274H277.772ZM267.084 274V249.872L265.804 249.104V247.12L272.652 246.053H274.039V274H267.084ZM286.883 274V260.197L285.603 259.408V257.125L290.189 255.867H293.752V274H286.883ZM289.976 253.904L286.477 250.384V249.637L289.976 246.139H290.787L294.435 249.637V250.384L290.787 253.904H289.976ZM303.586 274H296.695V260.197L295.415 259.408V257.125L300.002 255.867H303.629V258.619L303.885 258.299C304.055 258.071 304.304 257.801 304.631 257.488C304.973 257.175 305.349 256.869 305.762 256.571C306.174 256.258 306.665 255.995 307.234 255.781C307.817 255.554 308.386 255.44 308.941 255.44C310.889 255.44 312.261 255.973 313.058 257.04C313.869 258.107 314.274 259.892 314.274 262.395C314.274 262.48 314.274 262.608 314.274 262.779C314.26 262.949 314.253 263.084 314.253 263.184V274H307.213V262.565C307.255 261.228 306.686 260.56 305.506 260.56C305.421 260.56 305.335 260.567 305.25 260.581C305.179 260.596 305.108 260.61 305.037 260.624C304.98 260.638 304.909 260.667 304.823 260.709C304.752 260.738 304.688 260.766 304.631 260.795C304.574 260.809 304.51 260.844 304.439 260.901C304.368 260.944 304.311 260.98 304.269 261.008C304.226 261.036 304.162 261.086 304.077 261.157C304.005 261.214 303.949 261.257 303.906 261.285C303.877 261.314 303.821 261.364 303.735 261.435C303.664 261.492 303.614 261.534 303.586 261.563V274ZM325.159 281.531C324.049 281.531 322.798 281.275 321.404 280.763C320.01 280.265 319.107 279.788 318.695 279.333L320.039 276.411C320.394 276.681 320.97 276.93 321.767 277.157C322.563 277.385 323.246 277.499 323.815 277.499C324.383 277.499 324.874 277.42 325.287 277.264C325.713 277.122 326.04 276.937 326.268 276.709C326.495 276.496 326.68 276.226 326.823 275.899C326.965 275.586 327.05 275.301 327.079 275.045C327.121 274.789 327.15 274.505 327.164 274.192V272.379C325.955 273.63 324.483 274.256 322.748 274.256C320.401 274.256 318.68 273.452 317.585 271.845C316.49 270.238 315.943 268.005 315.943 265.147C315.943 263.81 316.092 262.58 316.391 261.456C316.689 260.318 317.123 259.323 317.692 258.469C318.275 257.602 319.029 256.926 319.953 256.443C320.878 255.945 321.923 255.696 323.089 255.696C324.853 255.696 326.382 256.087 327.676 256.869L328.039 255.867H331.303L335.313 256.059V258.064L334.033 258.96V273.211C334.033 278.757 331.075 281.531 325.159 281.531ZM325.841 270.373C326.268 270.373 326.709 270.252 327.164 270.011V258.768C326.823 258.697 326.51 258.661 326.225 258.661C324.334 258.676 323.381 260.133 323.367 263.035V266.341C323.367 267.252 323.487 268.034 323.729 268.688C324.156 269.812 324.86 270.373 325.841 270.373ZM106.899 307C106.074 307 105.32 306.915 104.638 306.744C103.955 306.573 103.358 306.36 102.846 306.104V313.443H95.9765V293.197L94.6965 292.408V290.125L99.2832 288.867H102.846V290.296C103.358 289.77 103.976 289.329 104.702 288.973C105.427 288.618 106.273 288.44 107.24 288.44C109.587 288.44 111.308 289.244 112.403 290.851C113.513 292.458 114.067 294.684 114.067 297.528C114.067 298.865 113.918 300.102 113.619 301.24C113.321 302.364 112.88 303.359 112.296 304.227C111.713 305.094 110.96 305.777 110.035 306.275C109.125 306.758 108.08 307 106.899 307ZM103.763 304.035C105.669 304.035 106.622 302.577 106.622 299.661V296.035C106.622 294.755 106.401 293.802 105.96 293.176C105.534 292.55 104.979 292.237 104.297 292.237C103.827 292.237 103.344 292.38 102.846 292.664V303.928C103.016 303.971 103.173 303.999 103.315 304.013C103.472 304.028 103.621 304.035 103.763 304.035ZM126.971 304.163C126.886 304.362 126.708 304.625 126.438 304.952C126.182 305.279 125.84 305.642 125.414 306.04C124.987 306.424 124.461 306.751 123.835 307.021C123.209 307.306 122.576 307.448 121.936 307.448C119.931 307.448 118.495 306.851 117.627 305.656C116.774 304.461 116.347 302.47 116.347 299.683V292.088L115.6 291.32V288.867H123.344V301.027C123.33 301.667 123.437 302.143 123.664 302.456C123.892 302.755 124.304 302.904 124.902 302.904C124.987 302.904 125.065 302.904 125.136 302.904C125.207 302.89 125.279 302.876 125.35 302.861C125.421 302.833 125.478 302.812 125.52 302.797C125.577 302.783 125.641 302.762 125.712 302.733C125.783 302.691 125.84 302.655 125.883 302.627C125.926 302.598 125.983 302.563 126.054 302.52C126.125 302.463 126.175 302.42 126.203 302.392C126.246 302.364 126.303 302.321 126.374 302.264C126.459 302.193 126.523 302.143 126.566 302.115V292.088L125.414 291.32V288.867H133.542V307H127.632L126.971 304.163ZM147.399 307C145.806 307 144.384 306.666 143.132 305.997V307H136.178V282.872L134.898 282.104V280.12L141.746 279.053H143.132V290.531C143.36 290.275 143.609 290.033 143.879 289.805C144.149 289.578 144.477 289.357 144.861 289.144C145.244 288.931 145.678 288.76 146.162 288.632C146.66 288.504 147.186 288.44 147.74 288.44C150.087 288.44 151.808 289.244 152.903 290.851C154.013 292.458 154.567 294.684 154.567 297.528C154.567 298.865 154.418 300.102 154.119 301.24C153.821 302.364 153.38 303.359 152.796 304.227C152.213 305.094 151.46 305.777 150.535 306.275C149.625 306.758 148.58 307 147.399 307ZM144.263 304.035C146.169 304.035 147.122 302.577 147.122 299.661V296.035C147.122 294.812 146.894 293.873 146.439 293.219C145.998 292.55 145.429 292.216 144.733 292.216C144.206 292.216 143.673 292.408 143.132 292.792V303.885C143.346 303.942 143.545 303.985 143.73 304.013C143.915 304.028 144.093 304.035 144.263 304.035ZM156.554 307V282.872L155.274 282.104V280.12L162.122 279.053H163.509V307H156.554ZM166.352 307V293.197L165.072 292.408V290.125L169.658 288.867H173.221V307H166.352ZM169.445 286.904L165.946 283.384V282.637L169.445 279.139H170.255L173.903 282.637V283.384L170.255 286.904H169.445ZM190.436 305.229L190.244 305.464C190.116 305.606 189.888 305.791 189.561 306.019C189.248 306.232 188.864 306.452 188.409 306.68C187.968 306.893 187.371 307.071 186.617 307.213C185.878 307.37 185.081 307.448 184.228 307.448C181.341 307.448 179.129 306.602 177.593 304.909C176.072 303.217 175.311 300.977 175.311 298.189C175.311 296.682 175.545 295.309 176.015 294.072C176.484 292.835 177.124 291.811 177.935 291C178.76 290.175 179.72 289.542 180.815 289.101C181.924 288.646 183.119 288.419 184.399 288.419C186.873 288.419 188.793 289.009 190.159 290.189C190.457 290.488 190.607 290.637 190.607 290.637L190.287 295.651L187.257 295.672L186.041 292.408C185.928 292.38 185.771 292.365 185.572 292.365C184.278 292.365 183.382 292.813 182.884 293.709C182.4 294.591 182.159 296.127 182.159 298.317C182.159 299.27 182.237 300.088 182.393 300.771C182.55 301.439 182.728 301.944 182.927 302.285C183.126 302.612 183.389 302.868 183.716 303.053C184.057 303.238 184.335 303.345 184.548 303.373C184.761 303.402 185.024 303.416 185.337 303.416C186.048 303.416 186.774 303.331 187.513 303.16C188.267 302.989 188.886 302.712 189.369 302.328L190.436 305.229ZM206.281 307.448C204.361 307.448 203.017 306.872 202.249 305.72C201.495 304.568 201.118 302.62 201.118 299.875V292.621H199.646V289.656L202.164 288.867L204.34 283.896H208.094V288.867H211.593V292.621H208.03V300.557C208.03 301.695 208.194 302.449 208.521 302.819C208.848 303.188 209.353 303.373 210.036 303.373C210.334 303.373 210.605 303.338 210.846 303.267C211.088 303.196 211.287 303.096 211.444 302.968V305.869C211.23 306.083 210.953 306.296 210.612 306.509C210.27 306.708 209.701 306.915 208.905 307.128C208.123 307.341 207.248 307.448 206.281 307.448ZM220.367 307H213.477V293.197L212.197 292.408V289.997L216.783 288.867H218.511L219.13 293.944C219.713 290.46 221.583 288.717 224.74 288.717C225.096 288.717 225.466 288.781 225.85 288.909L225.125 296.504C224.826 296.234 224.172 296.099 223.162 296.099C221.711 296.099 220.78 296.483 220.367 297.251V307ZM236.755 305.101L236.542 305.336C236.399 305.507 236.179 305.706 235.88 305.933C235.596 306.161 235.262 306.388 234.878 306.616C234.508 306.844 234.053 307.036 233.512 307.192C232.972 307.363 232.417 307.448 231.848 307.448C228.008 307.448 226.088 305.549 226.088 301.752C226.088 301.012 226.223 300.337 226.494 299.725C226.764 299.1 227.112 298.573 227.539 298.147C227.966 297.72 228.478 297.343 229.075 297.016C229.672 296.675 230.27 296.412 230.867 296.227C231.479 296.028 232.119 295.864 232.787 295.736C233.455 295.608 234.053 295.523 234.579 295.48C235.105 295.437 235.61 295.416 236.094 295.416V295.032C236.094 294.164 235.859 293.553 235.39 293.197C234.935 292.842 234.195 292.664 233.171 292.664C232.289 292.664 231.372 292.771 230.419 292.984C229.466 293.183 228.719 293.425 228.179 293.709L226.814 290.808C227.781 290.182 229.039 289.635 230.59 289.165C232.14 288.682 233.719 288.44 235.326 288.44C236.748 288.44 237.921 288.582 238.846 288.867C239.77 289.137 240.517 289.606 241.086 290.275C241.669 290.929 242.081 291.768 242.323 292.792C242.565 293.802 242.686 295.089 242.686 296.653V305.336L243.283 307H237.438L236.755 305.101ZM235.07 303.693C235.255 303.693 235.425 303.658 235.582 303.587C235.752 303.501 235.88 303.423 235.966 303.352C236.051 303.267 236.094 303.224 236.094 303.224V298.104C235.226 298.104 234.536 298.346 234.024 298.829C233.512 299.299 233.256 300.031 233.256 301.027C233.256 302.804 233.861 303.693 235.07 303.693ZM252.305 307H245.414V293.197L244.134 292.408V290.125L248.721 288.867H252.347V291.619L252.603 291.299C252.774 291.071 253.023 290.801 253.35 290.488C253.691 290.175 254.068 289.869 254.481 289.571C254.893 289.258 255.384 288.995 255.953 288.781C256.536 288.554 257.105 288.44 257.659 288.44C259.608 288.44 260.98 288.973 261.777 290.04C262.587 291.107 262.993 292.892 262.993 295.395C262.993 295.48 262.993 295.608 262.993 295.779C262.978 295.949 262.971 296.084 262.971 296.184V307H255.931V295.565C255.974 294.228 255.405 293.56 254.225 293.56C254.139 293.56 254.054 293.567 253.969 293.581C253.898 293.596 253.826 293.61 253.755 293.624C253.698 293.638 253.627 293.667 253.542 293.709C253.471 293.738 253.407 293.766 253.35 293.795C253.293 293.809 253.229 293.844 253.158 293.901C253.087 293.944 253.03 293.98 252.987 294.008C252.945 294.036 252.881 294.086 252.795 294.157C252.724 294.214 252.667 294.257 252.625 294.285C252.596 294.314 252.539 294.364 252.454 294.435C252.383 294.492 252.333 294.534 252.305 294.563V307ZM271.275 307.448C269.938 307.448 268.587 307.228 267.221 306.787C265.856 306.332 264.981 305.891 264.597 305.464L265.152 302.029C265.636 302.499 266.439 302.904 267.563 303.245C268.7 303.587 269.86 303.757 271.04 303.757C271.893 303.757 272.476 303.651 272.789 303.437C273.116 303.224 273.28 302.925 273.28 302.541C273.28 302.172 272.996 301.844 272.427 301.56C271.858 301.261 270.933 300.92 269.653 300.536C266.34 299.54 264.683 297.478 264.683 294.349C264.683 293.069 265.052 291.974 265.792 291.064C266.532 290.14 267.477 289.471 268.629 289.059C269.781 288.646 271.068 288.44 272.491 288.44C274.923 288.44 276.715 288.888 277.867 289.784C278.123 290.026 278.251 290.147 278.251 290.147L277.312 293.197C276.373 292.273 275.079 291.811 273.429 291.811C272.078 291.811 271.403 292.209 271.403 293.005C271.403 293.233 271.452 293.425 271.552 293.581C271.652 293.724 271.815 293.852 272.043 293.965C272.284 294.065 272.519 294.15 272.747 294.221C272.974 294.278 273.294 294.364 273.707 294.477C274.119 294.577 274.475 294.669 274.773 294.755C276.437 295.309 277.646 296.092 278.4 297.101C279.154 298.111 279.531 299.37 279.531 300.877C279.531 305.258 276.779 307.448 271.275 307.448ZM281.352 307V293.197L280.072 292.408V290.125L284.658 288.867H288.221V307H281.352ZM284.445 286.904L280.946 283.384V282.637L284.445 279.139H285.255L288.903 282.637V283.384L285.255 286.904H284.445ZM296.156 307.448C294.236 307.448 292.892 306.872 292.124 305.72C291.37 304.568 290.993 302.62 290.993 299.875V292.621H289.521V289.656L292.039 288.867L294.215 283.896H297.969V288.867H301.468V292.621H297.905V300.557C297.905 301.695 298.069 302.449 298.396 302.819C298.723 303.188 299.228 303.373 299.911 303.373C300.209 303.373 300.48 303.338 300.721 303.267C300.963 303.196 301.162 303.096 301.319 302.968V305.869C301.105 306.083 300.828 306.296 300.487 306.509C300.145 306.708 299.576 306.915 298.78 307.128C297.998 307.341 297.123 307.448 296.156 307.448Z" fill="#FFB129"/>
<path d="M120.103 595.037L116.84 582.858L105.929 585.782L104.264 579.569L115.175 576.645L111.937 564.56L118.799 562.721L122.037 574.807L132.948 571.883L134.613 578.096L123.702 581.02L126.965 593.198L120.103 595.037ZM147.637 588.321L141.177 564.212L135.748 566.329L133.984 559.745C135.094 559.271 136.013 558.826 136.74 558.411C137.468 557.995 138.207 557.454 138.956 556.79C139.706 556.125 140.288 555.329 140.702 554.401C141.115 553.473 141.369 552.4 141.462 551.182L148.293 549.352L157.992 585.547L147.637 588.321ZM170.228 567.261C171.128 570.62 172.072 572.907 173.06 574.122C174.043 575.316 175.204 575.734 176.543 575.375C177.532 575.11 178.234 574.679 178.648 574.082C179.057 573.464 179.209 572.342 179.104 570.713C178.994 569.064 178.538 566.746 177.737 563.758L175.741 556.309C174.179 550.477 172.058 547.92 169.379 548.638C168.019 549.002 167.223 549.989 166.992 551.597C166.781 553.199 167.166 555.835 168.149 559.503L170.228 567.261ZM177.368 581.051C174.978 581.691 172.827 581.947 170.915 581.819C169.019 581.665 167.397 581.216 166.049 580.473C164.702 579.729 163.49 578.629 162.415 577.173C161.361 575.71 160.483 574.124 159.781 572.412C159.08 570.701 158.414 568.671 157.785 566.321C157.128 563.869 156.695 561.677 156.487 559.745C156.278 557.813 156.322 555.958 156.618 554.178C156.909 552.377 157.516 550.812 158.441 549.482C159.36 548.131 160.67 546.919 162.369 545.845C164.09 544.766 166.207 543.889 168.721 543.216C171.112 542.575 173.265 542.329 175.183 542.478C177.12 542.621 178.756 543.078 180.088 543.847C181.441 544.611 182.658 545.732 183.739 547.209C184.819 548.686 185.71 550.281 186.412 551.992C187.108 553.683 187.77 555.703 188.4 558.052C189.057 560.504 189.49 562.696 189.698 564.628C189.906 566.56 189.852 568.419 189.536 570.204C189.24 571.984 188.619 573.542 187.674 574.877C186.749 576.207 185.424 577.401 183.698 578.46C181.992 579.514 179.882 580.377 177.368 581.051ZM224.711 567.67C223.516 567.99 222.39 568.159 221.335 568.177C220.28 568.194 219.331 568.117 218.49 567.945L221.339 578.578L211.386 581.245L203.527 551.912L201.365 551.265L200.479 547.958L206.636 544.353L211.798 542.97L212.353 545.041C212.891 544.08 213.616 543.201 214.529 542.404C215.442 541.607 216.599 541.021 218 540.646C221.4 539.735 224.205 540.231 226.416 542.134C228.647 544.032 230.315 547.042 231.419 551.163C231.938 553.1 232.202 554.951 232.211 556.715C232.215 558.459 231.962 560.073 231.454 561.556C230.946 563.039 230.119 564.321 228.973 565.401C227.842 566.455 226.421 567.211 224.711 567.67ZM219.016 564.591C221.777 563.851 222.592 561.369 221.46 557.144L220.052 551.89C219.555 550.035 218.866 548.74 217.984 548.005C217.123 547.264 216.198 547.026 215.209 547.291C214.529 547.473 213.883 547.867 213.272 548.472L217.645 564.792C217.909 564.788 218.147 564.768 218.358 564.734C218.591 564.694 218.81 564.646 219.016 564.591ZM246.085 562.638C243.303 563.384 241.132 563.071 239.572 561.7C238.032 560.323 236.73 557.647 235.664 553.67L232.848 543.16L230.716 543.732L229.564 539.435L232.905 537.314L234.128 529.268L239.568 527.81L241.498 535.012L246.567 533.654L248.025 539.094L242.863 540.477L245.944 551.975C246.386 553.624 246.915 554.652 247.533 555.061C248.15 555.47 248.954 555.542 249.943 555.277C250.376 555.161 250.753 555.004 251.076 554.808C251.399 554.611 251.649 554.389 251.826 554.143L252.952 558.347C252.726 558.739 252.407 559.155 251.995 559.597C251.578 560.018 250.833 560.538 249.762 561.156C248.712 561.769 247.486 562.263 246.085 562.638ZM264.639 557.667C262.702 558.186 260.659 558.391 258.51 558.282C256.355 558.153 254.916 557.853 254.194 557.384L253.665 552.192C254.547 552.685 255.869 552.96 257.629 553.018C259.411 553.071 261.156 552.869 262.867 552.41C264.103 552.079 264.906 551.698 265.277 551.268C265.668 550.831 265.789 550.335 265.64 549.779C265.496 549.243 264.957 548.88 264.023 548.688C263.082 548.476 261.61 548.341 259.607 548.281C254.419 548.125 251.218 545.781 250.003 541.247C249.506 539.393 249.617 537.662 250.335 536.056C251.047 534.43 252.158 533.094 253.667 532.049C255.176 531.005 256.961 530.206 259.022 529.654C262.545 528.71 265.316 528.663 267.333 529.514C267.798 529.765 268.03 529.891 268.03 529.891L267.854 534.675C266.135 533.7 264.081 533.533 261.69 534.173C259.733 534.698 258.909 535.537 259.218 536.691C259.306 537.021 259.453 537.28 259.658 537.468C259.857 537.635 260.144 537.757 260.518 537.834C260.907 537.884 261.28 537.916 261.637 537.931C261.989 537.925 262.486 537.925 263.127 537.929C263.764 537.913 264.315 537.909 264.781 537.917C267.407 538.075 269.462 538.739 270.946 539.909C272.43 541.08 273.465 542.757 274.05 544.941C275.751 551.288 272.614 555.53 264.639 557.667Z" fill="#FFB129"/>
</svg>
